<?xml version="1.0" encoding="UTF-8"?>
<svg id="Layer_2" data-name="Layer 2" xmlns="http://www.w3.org/2000/svg" viewBox="0 0 218.75 42.94">
  <defs>
    <style>
      .cls-1 {
        fill: #fff;
      }
    </style>
  </defs>
  <g id="Layer_2-2" data-name="Layer 2">
    <g>
      <path class="cls-1" d="m6.2,3.59c2.61,0,6.49.17,9.39,2.14,2.26,1.51,4.23,4.46,4.23,8.58,0,5.91-3.88,10.26-9.74,10.66l12.29,17.27h-5.22L5.39,25.33h-1.1v16.92H0V3.59h6.2Zm-1.91,17.91h2.72c5.33,0,8.52-2.55,8.52-7.07,0-2.14-.64-4.29-3.07-5.68-1.74-.99-3.71-1.1-5.56-1.1h-2.61v13.85Z"/>
      <path class="cls-1" d="m48.22,36.11c-.7,1.33-1.74,2.78-2.96,3.88-2.2,1.97-4.93,2.96-8,2.96-5.8,0-11.88-3.65-11.88-12.58,0-7.19,4.4-12.75,11.65-12.75,4.69,0,7.65,2.32,9.1,4.4,1.51,2.14,2.38,5.85,2.26,9.04h-18.72c.06,4.98,3.48,8.17,7.65,8.17,1.97,0,3.54-.58,4.93-1.74,1.1-.93,1.97-2.14,2.49-3.3l3.48,1.91Zm-4.11-8.52c-.7-3.77-3.54-6.26-7.07-6.26s-6.43,2.67-7.07,6.26h14.14Z"/>
      <path class="cls-1" d="m64.67,23.76c-.58-1.39-1.8-2.43-3.36-2.43s-2.9.87-2.9,2.72c0,1.74,1.16,2.26,3.88,3.42,3.48,1.45,5.1,2.55,6.03,3.71,1.04,1.28,1.28,2.55,1.28,3.88,0,5.04-3.65,7.88-8.29,7.88-.99,0-6.37-.12-8.4-6.14l3.59-1.51c.46,1.27,1.85,3.94,4.87,3.94,2.72,0,3.94-2.03,3.94-3.83,0-2.26-1.62-3.01-3.88-4-2.9-1.28-4.75-2.2-5.85-3.54-.93-1.16-1.1-2.32-1.1-3.54,0-4.23,2.96-6.72,7.01-6.72,1.28,0,4.69.23,6.61,4.35l-3.42,1.8Z"/>
      <path class="cls-1" d="m73.65,30.31c0-7.3,5.39-12.69,12.75-12.69s12.75,5.39,12.75,12.69-5.45,12.63-12.75,12.63-12.75-5.33-12.75-12.63Zm4.29,0c0,5.91,4.17,8.92,8.46,8.92s8.46-3.07,8.46-8.92-4.06-8.98-8.46-8.98-8.46,3.13-8.46,8.98Z"/>
      <path class="cls-1" d="m109.69,0v42.25h-4.17V0h4.17Z"/>
      <path class="cls-1" d="m121.75,32.22c0,1.68,0,3.65,1.16,5.16.64.81,1.91,1.85,4.23,1.85s3.59-1.04,4.23-1.85c1.16-1.51,1.16-3.48,1.16-5.16v-14.03h4.17v14.49c0,2.96-.29,5.16-2.2,7.24-2.14,2.26-4.98,3.01-7.36,3.01s-5.22-.75-7.36-3.01c-1.91-2.09-2.2-4.29-2.2-7.24v-14.49h4.17v14.03Z"/>
      <path class="cls-1" d="m148.87,22.02v20.23h-4.17v-20.23h-2.55v-3.83h2.55v-8.69h4.17v8.69h4.17v3.83h-4.17Z"/>
      <path class="cls-1" d="m159.06,6.14c1.62,0,2.96,1.33,2.96,2.96s-1.33,2.96-2.96,2.96-2.96-1.33-2.96-2.96,1.33-2.96,2.96-2.96Zm2.09,12.05v24.05h-4.17v-24.05h4.17Z"/>
      <path class="cls-1" d="m167.52,30.31c0-7.3,5.39-12.69,12.75-12.69s12.75,5.39,12.75,12.69-5.45,12.63-12.75,12.63-12.75-5.33-12.75-12.63Zm4.29,0c0,5.91,4.17,8.92,8.46,8.92s8.46-3.07,8.46-8.92-4.06-8.98-8.46-8.98-8.46,3.13-8.46,8.98Z"/>
      <path class="cls-1" d="m199.39,18.2h4.17v2.78c.75-.99,2.9-3.36,6.9-3.36,2.84,0,5.45,1.16,6.9,3.3,1.22,1.8,1.39,3.77,1.39,6.43v14.89h-4.17v-14.78c0-1.45-.12-3.13-1.1-4.4-.81-1.04-2.09-1.74-3.94-1.74-1.45,0-3.01.41-4.23,1.85-1.62,1.91-1.74,4.75-1.74,6.49v12.58h-4.17v-24.05Z"/>
    </g>
  </g>
</svg>