<?xml version="1.0" encoding="UTF-8"?>
<svg id="Layer_2" data-name="Layer 2" xmlns="http://www.w3.org/2000/svg" viewBox="0 0 388.96 71.66">
  <defs>
    <style>
      .cls-1 {
        fill: #fff;
      }
    </style>
  </defs>
  <g id="Layer_2-2" data-name="Layer 2">
    <g>
      <path class="cls-1" d="m31.22,18.37c-.57-1.43-1.43-2.76-2.86-4-2-1.62-4.09-2.28-6.85-2.28-5.9,0-8.95,3.52-8.95,7.61,0,1.9.67,5.23,6.85,7.71l6.38,2.57c11.71,4.76,14.94,11.42,14.94,18.65,0,12.09-8.57,20.37-20.46,20.37-7.33,0-11.71-2.76-14.94-6.38-3.43-3.81-4.95-8-5.33-12.37l9.61-2.09c0,3.14,1.14,6.09,2.66,8.09,1.81,2.28,4.47,3.81,8.28,3.81,5.9,0,10.47-4.28,10.47-10.66s-4.95-9.14-9.14-10.85l-6.09-2.57c-5.23-2.19-12.94-6.57-12.94-16.08C2.85,11.33,9.52,3.14,21.41,3.14c6.85,0,10.75,2.57,12.75,4.28,1.71,1.52,3.52,3.71,4.85,6.38l-7.8,4.57Z"/>
      <path class="cls-1" d="m87.94,13.42h-25.32v16.08h24.55v9.14h-24.55v19.99h25.32v9.14h-35.02V4.28h35.02v9.14Z"/>
      <path class="cls-1" d="m118.11,13.42v54.34h-9.71V13.42h-14.56V4.28h38.83v9.14h-14.56Z"/>
      <path class="cls-1" d="m161.79,13.42v54.34h-9.71V13.42h-14.56V4.28h38.83v9.14h-14.56Z"/>
      <path class="cls-1" d="m194.62,4.28v63.48h-9.71V4.28h9.71Z"/>
      <path class="cls-1" d="m209.85,67.76V0l46.06,48.25V4.28h9.71v67.38l-46.06-48.25v44.35h-9.71Z"/>
      <path class="cls-1" d="m313.68,34.74h26.17v.48c0,10.85-3.23,19.7-9.42,25.7-6.57,6.38-14.37,8.09-21.6,8.09-9.23,0-15.8-2.67-21.6-8.66-6.19-6.38-9.42-14.85-9.42-23.98,0-9.9,4-18.46,9.23-23.7,5.43-5.52,14.09-9.52,23.89-9.52,5.71,0,11.61,1.24,16.56,4,5.23,2.95,8.47,6.66,10.28,9.52l-7.71,5.42c-1.9-2.67-4.76-5.52-7.8-7.23-3.52-2.09-7.33-2.76-11.23-2.76-8.28,0-13.61,3.43-16.75,6.57-4.19,4.19-6.76,10.94-6.76,17.8,0,6.38,2.38,12.75,6.57,17.23,4.38,4.66,9.8,6.38,15.89,6.38,5.52,0,10.09-1.62,14.18-5.61,3.52-3.43,4.95-7.14,5.33-10.75h-15.8v-8.95Z"/>
      <path class="cls-1" d="m379.45,18.37c-.57-1.43-1.43-2.76-2.86-4-2-1.62-4.09-2.28-6.85-2.28-5.9,0-8.95,3.52-8.95,7.61,0,1.9.67,5.23,6.85,7.71l6.38,2.57c11.71,4.76,14.94,11.42,14.94,18.65,0,12.09-8.57,20.37-20.46,20.37-7.33,0-11.71-2.76-14.94-6.38-3.43-3.81-4.95-8-5.33-12.37l9.61-2.09c0,3.14,1.14,6.09,2.67,8.09,1.81,2.28,4.47,3.81,8.28,3.81,5.9,0,10.47-4.28,10.47-10.66s-4.95-9.14-9.14-10.85l-6.09-2.57c-5.23-2.19-12.94-6.57-12.94-16.08,0-8.57,6.66-16.75,18.56-16.75,6.85,0,10.75,2.57,12.75,4.28,1.71,1.52,3.52,3.71,4.85,6.38l-7.8,4.57Z"/>
    </g>
  </g>
</svg>