<?xml version="1.0" encoding="UTF-8"?>
<svg id="Layer_2" data-name="Layer 2" xmlns="http://www.w3.org/2000/svg" viewBox="0 0 1570.39 205.62">
    <defs>
        <style>
            .cls-1 {
            fill: #fff;
            }
        </style>
    </defs>
    <g id="Layer_2-2" data-name="Layer 2">
        <g>
            <path class="cls-1" d="m0,194.5L37.98,0l62.94,140.52L164.39,0l34.18,194.5h-28.21l-18.45-109.05-52.63,117.46-52.08-117.73-18.99,109.32H0Z"/>
            <path class="cls-1" d="m286.73,39.61v154.9h-27.67V39.61h-41.5V13.56h110.68v26.04h-41.5Z"/>
            <path class="cls-1" d="m352.66,165.2c8.95,0,16.28,7.32,16.28,16.28s-7.32,16.28-16.28,16.28-16.28-7.32-16.28-16.28,7.32-16.28,16.28-16.28Z"/>
            <path class="cls-1" d="m576.45,150.83h-77.31l-19.8,43.67h-29.84L539.56,2.98l85.72,191.52h-29.84l-18.99-43.67Zm-11.12-26.04l-26.86-61.31-27.94,61.31h54.8Z"/>
            <path class="cls-1" d="m720.77,53.71c-1.63-4.07-4.07-7.87-8.14-11.39-5.7-4.61-11.67-6.51-19.53-6.51-16.82,0-25.5,10.04-25.5,21.7,0,5.43,1.9,14.92,19.53,21.97l18.17,7.32c33.37,13.56,42.59,32.55,42.59,53.17,0,34.45-24.42,58.05-58.32,58.05-20.89,0-33.37-7.87-42.59-18.17-9.77-10.85-14.11-22.79-15.19-35.27l27.4-5.97c0,8.95,3.26,17.36,7.6,23.06,5.15,6.51,12.75,10.85,23.6,10.85,16.82,0,29.84-12.21,29.84-30.38s-14.11-26.04-26.04-30.93l-17.36-7.32c-14.92-6.24-36.89-18.72-36.89-45.84,0-24.41,18.99-47.74,52.9-47.74,19.53,0,30.65,7.32,36.35,12.21,4.88,4.34,10.04,10.58,13.83,18.18l-22.24,13.02Z"/>
            <path class="cls-1" d="m822.5,13.56c11.12,0,26.58,1.08,39.61,9.77,15.19,10.04,22.52,27.4,22.52,43.95,0,10.58-2.71,26.86-17.63,39.61-14.38,12.21-30.92,14.11-44.22,14.11h-12.48v73.51h-27.67V13.56h39.88Zm-12.21,81.92h12.48c23.87,0,35.27-11.67,35.27-28.48,0-10.04-4.07-27.94-35.54-27.94h-12.21v56.42Z"/>
            <path class="cls-1" d="m940.5,13.56v180.94h-27.67V13.56h27.67Z"/>
            <path class="cls-1" d="m1016.18,13.56c21.97,0,36.08,2.71,47.74,10.58,19.8,13.29,21.43,34.72,21.43,42.59,0,26.04-16,45.03-40.15,50.46l56.42,77.31h-33.37l-51.81-74.06h-4.88v74.06h-27.67V13.56h32.28Zm-4.61,83.01h8.68c7.6,0,38.52-.81,38.52-29.57,0-25.5-24.14-27.94-37.71-27.94h-9.5v57.51Z"/>
            <path class="cls-1" d="m1156.43,13.56v180.94h-27.67V13.56h27.67Z"/>
            <path class="cls-1" d="m1199.84,194.5V1.36l131.3,137.53V13.56h27.67v192.06l-131.29-137.53v126.41h-27.67Z"/>
            <path class="cls-1" d="m1495.79,100.37h74.6v1.36c0,30.93-9.22,56.15-26.86,73.24-18.72,18.17-40.96,23.06-61.58,23.06-26.31,0-45.03-7.6-61.58-24.69-17.63-18.18-26.86-42.32-26.86-68.36,0-28.21,11.39-52.63,26.31-67.55,15.46-15.73,40.15-27.13,68.09-27.13,16.28,0,33.1,3.53,47.2,11.39,14.92,8.41,24.14,18.99,29.3,27.13l-21.97,15.46c-5.42-7.6-13.56-15.73-22.24-20.62-10.04-5.97-20.89-7.87-32.01-7.87-23.6,0-38.79,9.77-47.74,18.72-11.94,11.94-19.26,31.2-19.26,50.73,0,18.18,6.78,36.35,18.72,49.1,12.48,13.29,27.94,18.17,45.3,18.17,15.73,0,28.75-4.61,40.42-16,10.04-9.77,14.11-20.34,15.19-30.65h-45.03v-25.5Z"/>
        </g>
    </g>
</svg>