<?xml version="1.0" encoding="UTF-8"?>
<svg id="Layer_2" data-name="Layer 2" xmlns="http://www.w3.org/2000/svg" viewBox="0 0 568.13 80.97">
  <defs>
    <style>
      .cls-1 {
        fill: #fff;
      }
    </style>
  </defs>
  <g id="Layer_1-2" data-name="Layer 1">
    <g>
      <path class="cls-1" d="m59.59,76.79c-6.85,3.49-12.43,4.18-17.08,4.18-14.29,0-23.93-4.88-30.44-11.27C5.11,62.96,0,52.74,0,40.31S5.11,17.89,12.08,11.15C18.94,4.53,28.93,0,41.01,0c5.11,0,11.04,1.05,18.59,4.3v20.68c-3.95-4.18-9.87-8.25-18.12-8.25-6.51,0-11.73,2.09-15.8,6.04-4.3,4.18-7.32,10.46-7.32,17.89,0,8.01,3.25,13.71,6.74,17.08,1.63,1.63,7.2,6.5,16.73,6.5,4.65,0,10.92-1.28,17.77-8.02v20.56Z"/>
      <path class="cls-1" d="m142.53,11.27c7.32,7.09,12.08,17.31,12.08,29.27,0,10.34-3.72,20.91-12.08,29.04-7.2,6.97-16.96,11.38-29.97,11.38-14.52,0-24.39-5.81-30.2-11.38-7.43-6.97-12.08-17.42-12.08-28.81s5-22.42,11.96-29.39c5.23-5.23,14.87-11.38,30.32-11.38,12.08,0,22.19,3.72,29.97,11.27Zm-47.05,11.85c-3.37,3.25-6.85,8.94-6.85,17.54,0,7.09,2.32,12.78,7.09,17.42,5,4.76,10.57,6.39,16.61,6.39,7.9,0,13.48-2.9,17.19-6.62,3.02-2.9,6.74-8.36,6.74-17.31,0-8.02-3.25-13.94-6.74-17.42-3.83-3.72-9.99-6.62-17.08-6.62s-12.78,2.44-16.96,6.62Z"/>
      <path class="cls-1" d="m167.97,79.22V1.74h15.57l42.05,49.95V1.74h17.89v77.48h-15.57l-42.05-50.18v50.18h-17.89Z"/>
      <path class="cls-1" d="m287.61,16.84v62.38h-17.89V16.84h-16.84V1.74h51.58v15.1h-16.84Z"/>
      <path class="cls-1" d="m332.1,1.74v77.48h-17.89V1.74h17.89Z"/>
      <path class="cls-1" d="m349.41,79.22V1.74h15.57l42.05,49.95V1.74h17.89v77.48h-15.57l-42.05-50.18v50.18h-17.89Z"/>
      <path class="cls-1" d="m507.38,47.63c0,7.43-.93,16.61-8.6,24.51-7.43,7.67-16.03,8.83-24.16,8.83s-16.73-1.16-24.16-8.83c-7.67-7.9-8.6-17.08-8.6-24.51V1.74h17.89v45.42c0,3.37.23,9.06,4.07,13.01,3.14,3.37,7.43,4.07,10.8,4.07s7.67-.7,10.8-4.07c3.83-3.95,4.07-9.64,4.07-13.01V1.74h17.89v45.89Z"/>
      <path class="cls-1" d="m568.13,16.84h-25.9v14.99h24.63v15.1h-24.63v17.19h25.9v15.1h-43.79V1.74h43.79v15.1Z"/>
    </g>
  </g>
</svg>