<?xml version="1.0" encoding="UTF-8"?>
<svg id="Layer_2" data-name="Layer 2" xmlns="http://www.w3.org/2000/svg" viewBox="0 0 606.23 80.97">
  <defs>
    <style>
      .cls-1 {
        fill: #fff;
      }
    </style>
  </defs>
  <g id="Layer_1-2" data-name="Layer 1">
    <g>
      <path class="cls-1" d="m0,79.22V1.74h15.57l42.05,49.95V1.74h17.89v77.48h-15.57L17.89,29.04v50.18H0Z"/>
      <path class="cls-1" d="m136.26,16.84h-25.9v14.99h24.63v15.1h-24.63v17.19h25.9v15.1h-43.79V1.74h43.79v15.1Z"/>
      <path class="cls-1" d="m161.35,1.74l16.5,51.35L194.34,1.74h12.31l16.5,51.35L239.64,1.74h18.59l-26.37,77.48h-15.1l-16.26-47.05-16.26,47.05h-15.1L142.76,1.74h18.59Z"/>
      <path class="cls-1" d="m331.52,36.94h38.45v.81c0,9.41-3.37,23.7-11.96,32.64-8.6,8.94-18.47,10.57-27.65,10.57s-19.28-1.51-28.34-10.8c-4.53-4.65-11.38-14.06-11.38-29.51,0-12.66,4.65-22.77,11.15-29.39,9.53-9.87,21.26-11.27,30.44-11.27,6.39,0,14.52,1.05,21.72,5.81,5.23,3.48,9.76,8.94,12.55,13.82l-16.15,8.71c-1.51-3.02-3.83-6.16-6.85-8.36-3.48-2.56-7.43-3.72-11.85-3.72-7.09,0-12.31,2.32-16.03,6.27-4.3,4.53-6.62,11.15-6.62,18.35,0,8.83,3.25,14.52,6.51,17.77,4.53,4.65,9.76,6.04,15.68,6.04,7.67,0,11.73-2.67,13.48-4.18.58-.46,4.07-3.49,5.58-9.18h-18.7v-14.4Z"/>
      <path class="cls-1" d="m426.42,64.59h-29.27l-5.92,14.64h-18.59L403.89,1.74h16.38l30.55,77.48h-18.59l-5.81-14.64Zm-4.88-13.71l-9.53-26.02-9.64,26.02h19.17Z"/>
      <path class="cls-1" d="m455.92,79.22L468.35,1.74h14.87l19.28,46.35,19.28-46.35h14.87l12.43,77.48h-17.89l-6.16-46.23-19.4,46.23h-6.27l-19.4-46.23-6.16,46.23h-17.89Z"/>
      <path class="cls-1" d="m606.23,16.84h-25.9v14.99h24.63v15.1h-24.63v17.19h25.9v15.1h-43.79V1.74h43.79v15.1Z"/>
    </g>
  </g>
</svg>