<?xml version="1.0" encoding="UTF-8"?>
<svg id="Layer_2" data-name="Layer 2" xmlns="http://www.w3.org/2000/svg" viewBox="0 0 507.73 80.97">
  <defs>
    <style>
      .cls-1 {
        fill: #fff;
      }
    </style>
  </defs>
  <g id="Layer_1-2" data-name="Layer 1">
    <g>
      <path class="cls-1" d="m44.49,20.68c-5.81-5.23-10.8-5.58-13.01-5.58-2.44,0-5.46.35-7.55,2.67-1.16,1.16-1.98,2.9-1.98,4.88,0,1.86.58,3.25,1.74,4.3,1.86,1.74,4.53,2.44,9.76,4.41l5.81,2.21c3.37,1.28,7.55,3.02,10.57,5.92,4.53,4.3,5.69,9.87,5.69,14.4,0,8.02-2.79,14.99-6.85,19.17-6.85,7.2-16.84,7.9-21.96,7.9-5.58,0-10.45-.81-15.33-3.25-3.95-1.98-8.48-5.58-11.38-8.48l9.29-12.78c1.98,1.97,5.11,4.65,7.2,5.92,3.02,1.86,6.16,2.79,9.76,2.79,2.32,0,5.58-.46,8.13-2.67,1.51-1.28,2.79-3.37,2.79-6.27,0-2.56-1.05-4.18-2.67-5.58-2.09-1.74-6.85-3.49-9.06-4.3l-6.39-2.21c-3.6-1.28-7.78-2.9-10.8-6.16-4.07-4.3-4.65-9.76-4.65-13.48,0-6.85,2.09-12.66,6.74-17.42C15.8,1.51,22.3,0,29.51,0c5.34,0,13.94.93,23,7.67l-8.02,13.01Z"/>
      <path class="cls-1" d="m112.21,16.84h-25.9v14.99h24.63v15.1h-24.63v17.19h25.9v15.1h-43.79V1.74h43.79v15.1Z"/>
      <path class="cls-1" d="m153.91,16.84v62.38h-17.89V16.84h-16.84V1.74h51.58v15.1h-16.84Z"/>
      <path class="cls-1" d="m213.38,16.84v62.38h-17.89V16.84h-16.84V1.74h51.58v15.1h-16.84Z"/>
      <path class="cls-1" d="m257.87,1.74v77.48h-17.89V1.74h17.89Z"/>
      <path class="cls-1" d="m275.18,79.22V1.74h15.57l42.05,49.95V1.74h17.89v77.48h-15.57l-42.05-50.18v50.18h-17.89Z"/>
      <path class="cls-1" d="m404.93,36.94h38.45v.81c0,9.41-3.37,23.7-11.96,32.64-8.6,8.94-18.47,10.57-27.65,10.57s-19.28-1.51-28.34-10.8c-4.53-4.65-11.38-14.06-11.38-29.51,0-12.66,4.65-22.77,11.15-29.39,9.53-9.87,21.26-11.27,30.44-11.27,6.39,0,14.52,1.05,21.72,5.81,5.23,3.48,9.76,8.94,12.55,13.82l-16.15,8.71c-1.51-3.02-3.83-6.16-6.85-8.36-3.48-2.56-7.43-3.72-11.85-3.72-7.09,0-12.31,2.32-16.03,6.27-4.3,4.53-6.62,11.15-6.62,18.35,0,8.83,3.25,14.52,6.51,17.77,4.53,4.65,9.76,6.04,15.68,6.04,7.67,0,11.73-2.67,13.48-4.18.58-.46,4.07-3.49,5.58-9.18h-18.7v-14.4Z"/>
      <path class="cls-1" d="m496.69,20.68c-5.81-5.23-10.8-5.58-13.01-5.58-2.44,0-5.46.35-7.55,2.67-1.16,1.16-1.97,2.9-1.97,4.88,0,1.86.58,3.25,1.74,4.3,1.86,1.74,4.53,2.44,9.76,4.41l5.81,2.21c3.37,1.28,7.55,3.02,10.57,5.92,4.53,4.3,5.69,9.87,5.69,14.4,0,8.02-2.79,14.99-6.85,19.17-6.85,7.2-16.84,7.9-21.96,7.9-5.58,0-10.45-.81-15.33-3.25-3.95-1.98-8.48-5.58-11.38-8.48l9.29-12.78c1.98,1.97,5.11,4.65,7.2,5.92,3.02,1.86,6.16,2.79,9.76,2.79,2.32,0,5.58-.46,8.13-2.67,1.51-1.28,2.79-3.37,2.79-6.27,0-2.56-1.05-4.18-2.67-5.58-2.09-1.74-6.85-3.49-9.06-4.3l-6.39-2.21c-3.6-1.28-7.78-2.9-10.8-6.16-4.07-4.3-4.65-9.76-4.65-13.48,0-6.85,2.09-12.66,6.74-17.42,5.46-5.58,11.97-7.09,19.17-7.09,5.34,0,13.94.93,23,7.67l-8.02,13.01Z"/>
    </g>
  </g>
</svg>