<?xml version="1.0" encoding="UTF-8"?>
<svg id="Layer_2" data-name="Layer 2" xmlns="http://www.w3.org/2000/svg" viewBox="0 0 822.42 145.67">
    <defs>
        <style>
            .cls-1 {
            fill: #fff;
            }
        </style>
    </defs>
    <g id="Layer_1-2" data-name="Layer 1">
        <g>
            <path class="cls-1" d="m80.05,37.2c-10.45-9.4-19.44-10.03-23.41-10.03-4.39,0-9.82.63-13.58,4.81-2.09,2.09-3.55,5.23-3.55,8.78,0,3.34,1.04,5.85,3.13,7.73,3.34,3.13,8.15,4.39,17.56,7.94l10.45,3.97c6.06,2.3,13.58,5.43,19.02,10.66,8.15,7.73,10.24,17.77,10.24,25.92,0,14.42-5.02,26.96-12.33,34.48-12.33,12.96-30.3,14.21-39.5,14.21-10.03,0-18.81-1.46-27.59-5.85-7.11-3.55-15.26-10.03-20.48-15.26l16.72-22.99c3.55,3.55,9.2,8.36,12.96,10.66,5.43,3.34,11.08,5.02,17.56,5.02,4.18,0,10.03-.84,14.63-4.81,2.72-2.3,5.02-6.06,5.02-11.29,0-4.6-1.88-7.52-4.81-10.03-3.76-3.13-12.33-6.27-16.3-7.73l-11.5-3.97c-6.48-2.3-14-5.23-19.44-11.08-7.31-7.73-8.36-17.56-8.36-24.24,0-12.33,3.76-22.78,12.12-31.35C28.42,2.72,40.13,0,53.09,0c9.61,0,25.08,1.67,41.38,13.79l-14.42,23.41Z"/>
            <path class="cls-1" d="m240.98,85.69c0,13.38-1.67,29.89-15.47,44.1-13.38,13.79-28.84,15.88-43.47,15.88s-30.1-2.09-43.47-15.88c-13.79-14.21-15.47-30.72-15.47-44.1V3.13h32.19v81.72c0,6.06.42,16.3,7.31,23.41,5.64,6.06,13.38,7.31,19.44,7.31s13.79-1.25,19.44-7.31c6.9-7.11,7.31-17.35,7.31-23.41V3.13h32.19v82.56Z"/>
            <path class="cls-1" d="m320.4,3.13c17.76,0,28.84,5.85,35.53,12.12,5.85,5.64,12.12,15.67,12.12,31.14,0,8.78-1.88,19.65-10.87,28.42-4.81,4.6-11.7,8.78-19.44,10.66l42.85,57.06h-39.29l-37.62-54.97v54.97h-32.19V3.13h48.91Zm-16.72,63.33h7.31c5.85,0,13.79-.63,19.23-6.06,2.3-2.3,5.23-6.69,5.23-13.58,0-7.94-3.76-12.12-6.48-14.21-5.23-3.97-13.58-4.39-17.77-4.39h-7.52v38.25Z"/>
            <path class="cls-1" d="m416.54,3.13l35.32,89.24L487.18,3.13h34.69l-59.15,139.4h-21.74L381.84,3.13h34.69Z"/>
            <path class="cls-1" d="m570.78,3.13v139.4h-32.19V3.13h32.19Z"/>
            <path class="cls-1" d="m622.2,3.13l35.32,89.24L692.84,3.13h34.69l-59.15,139.4h-21.74L587.5,3.13h34.69Z"/>
            <path class="cls-1" d="m822.42,30.3h-46.61v26.96h44.31v27.17h-44.31v30.93h46.61v27.17h-78.79V3.13h78.79v27.17Z"/>
        </g>
    </g>
</svg>