<?xml version="1.0" encoding="UTF-8"?>
<svg id="Layer_2" data-name="Layer 2" xmlns="http://www.w3.org/2000/svg" viewBox="0 0 129.71 97.62">
  <defs>
    <style>
      .cls-1 {
        fill: #fff;
      }

      .cls-1, .cls-2 {
        stroke-width: 0px;
      }

      .cls-2 {
        fill: #303030;
      }
    </style>
  </defs>
  <g id="Layer_2-2" data-name="Layer 2">
    <g>
      <rect class="cls-2" width="129.71" height="97.62" rx="13.11" ry="13.11"/>
      <path class="cls-1" d="m89.28,32.52H29.33l12.27-12.27c1.73-1.73,1.73-4.53,0-6.25-1.73-1.73-4.53-1.73-6.25,0l-19.81,19.81c-1.73,1.73-1.73,4.53,0,6.25l19.81,19.81c.86.86,1.99,1.29,3.13,1.29s2.26-.43,3.13-1.29c1.73-1.73,1.73-4.53,0-6.25l-12.27-12.27h59.95c9.57,0,17.36,7.79,17.36,17.36s-7.79,17.36-17.36,17.36h-36.47c-2.44,0-4.42,1.98-4.42,4.42s1.98,4.42,4.42,4.42h36.47c14.45,0,26.2-11.75,26.2-26.2s-11.75-26.2-26.2-26.2Z"/>
    </g>
  </g>
</svg>