<?xml version="1.0" encoding="UTF-8"?>
<svg id="Layer_2" data-name="Layer 2" xmlns="http://www.w3.org/2000/svg" viewBox="0 0 38.03 56.44">
  <defs>
    <style>
      .cls-1 {
        fill: #353535;
        stroke-width: 0px;
      }
    </style>
  </defs>
  <g id="Layer_2-2" data-name="Layer 2">
    <path class="cls-1" d="m23.86.52C17.39-.74,10.37.09,5.4,5.25.94,9.87,0,13.53,0,21.59h9.99v-1.88c0-4.3.53-8.83,7.01-10.07,3.54-.68,6.86.37,8.83,2.2,2.25,2.08,2.27,6.78-1.32,9.12l-5.63,3.63c-3.28,1.99-4.41,4.21-4.41,7.48v10.93l9.99-.02v-7.35c0-1.99.98-3.88,3.61-5.51,2.63-1.63,9.96-4.94,9.96-13.64S30.33,1.79,23.86.52Zm-9.45,46.17v9.74h10.13v-9.74h-10.13Z"/>
  </g>
</svg>