<?xml version="1.0" encoding="UTF-8"?>
<svg id="Layer_2" data-name="Layer 2" xmlns="http://www.w3.org/2000/svg" viewBox="0 0 560.35 189.06">
  <defs>
    <style>
      .cls-1 {
        fill: #660928;
      }

      .cls-2 {
        fill: #a5a5a5;
      }

      .cls-3 {
        fill: #7be6ff;
      }

      .cls-4 {
        fill: #660a29;
      }

      .cls-5 {
        fill: #dd6b83;
      }

      .cls-6 {
        fill: #f9f7f2;
        stroke: #7a7a7a;
        stroke-miterlimit: 10;
        stroke-width: .25px;
      }

      .cls-7 {
        fill: #39c100;
      }

      .cls-8 {
        fill: #0bc6ff;
      }

      .cls-9 {
        fill: #af8100;
      }
    </style>
  </defs>
  <g id="Layer_2-2" data-name="Layer 2">
    <g>
      <rect class="cls-2" x="52.82" width="507.53" height="37.99"/>
      <rect class="cls-2" x="52.82" y="50.36" width="507.53" height="37.99"/>
      <rect class="cls-2" x="52.82" y="100.71" width="507.53" height="37.99"/>
      <rect class="cls-2" x="52.82" y="151.07" width="507.53" height="37.99"/>
      <polygon class="cls-7" points="37.94 13.46 37.94 24.52 26.48 24.52 26.48 35.98 15.42 35.98 15.42 24.52 3.96 24.52 3.96 13.46 15.42 13.46 15.42 2 26.48 2 26.48 13.46 37.94 13.46"/>
      <path class="cls-8" d="m30.81,78.62c0,5.28-4.45,9.56-9.94,9.56s-9.94-4.28-9.94-9.56c0-1.31.28-2.57.78-3.7v-.02s9.16-24.37,9.16-24.37l9.15,24.37v.02c.51,1.14.78,2.39.78,3.7Z"/>
      <path class="cls-3" d="m28.54,79.98c-.39,3.71-3.94,6.37-7.93,5.93-.48-.05-.95-.15-1.39-.28.19.01.37.02.56.02,4.45,0,8.06-3.71,8.06-8.28,0-.4-.03-.79-.08-1.18.63,1.14.93,2.44.78,3.79Z"/>
      <path class="cls-6" d="m34.5,106.52c-.66,1.16-2.04,1.67-3.26,1.27l-8.55,15.02-3.88-2.21,8.55-15.02c-.96-.85-1.24-2.29-.58-3.46.76-1.34,2.46-1.81,3.79-1.05.55.31.95.77,1.17,1.31.58-.09,1.18.02,1.72.33,1.33.76,1.8,2.46,1.03,3.8Z"/>
      <ellipse class="cls-9" cx="18.81" cy="125.15" rx="14.98" ry="11.03" transform="translate(-99.25 79.57) rotate(-60.34)"/>
      <g>
        <path class="cls-5" d="m18.51,160.18s-.03.01-.05.02c0,0,0-.02,0-.03.01-.01.03,0,.04.01Z"/>
        <path class="cls-5" d="m18.51,160.18s-.03.01-.05.02c0,0,0-.02,0-.03.01-.01.03,0,.04.01Z"/>
        <path class="cls-5" d="m18.51,160.18s-.03.01-.05.02c0,0,0-.02,0-.03.01-.01.03,0,.04.01Z"/>
        <path class="cls-5" d="m37.84,173.65c0,3.53-3.57,6.45-8.11,6.81h-.02c-1.62,1.65-4.27,2.73-7.22,2.73-1.47,0-2.85-.27-4.08-.73-1.23.46-2.61.73-4.08.73-3.67,0-6.81-1.64-8.23-4.01-3.55-.92-6.1-3.49-6.1-6.47,0-1.9,1.01-3.61,2.63-4.84.09-3.53,3.69-6.36,8.11-6.36.1,0,.21,0,.31.01,1.11-1.31,2.65-2.11,4.37-2.11,1.45,0,2.82.58,3.86,1.55,1.08-.74,2.36-1.14,3.74-1.14,2,0,3.79.87,5,2.27,4.95.05,8.93,3.09,8.93,6.84,0,.5-.07.99-.2,1.45.7.98,1.09,2.09,1.09,3.27Z"/>
        <path class="cls-5" d="m18.51,160.18s-.03.01-.05.02c0,0,0-.02,0-.03.01-.01.03,0,.04.01Z"/>
        <path class="cls-1" d="m11.17,162.21s-6.69-.66-7.79,5.2c0,0,.85-4.99,7.79-5.2Z"/>
        <path class="cls-1" d="m14.8,182s-5.4-.24-7.03-3.16c-10.91-2.8-5.48-8.33-5.48-8.33-2.88,4.71,2.12,7.16,5.42,8.22.09.03.18.05.27.08.03.03.05.07.08.1,0,0,0,.01.01.01.88,1.1,2.75,2.37,6.73,3.08Z"/>
        <path class="cls-1" d="m35.49,170.67s1.95-3.21-4.9-7.66c0,0,6.94,3.3,4.9,7.66Z"/>
        <path class="cls-4" d="m16.64,180.53c2.5,1.21,6.51.34,7.12-2.7-.28,3.17-4.77,4.37-7.12,2.7h0Z"/>
        <path class="cls-4" d="m15.57,180.32c-.38.18-.78.02-1.16-.04-.76-.15-1.54-.41-2.08-1-.67-.91-.87-2.49,0-3.33,1.2-.9,2.85-1.84,4.37-1.17,1.66.91.94,3.42-.85,3.58-.82.1-1.65-.3-2.13-.95-.05-.07-.06-.05,0-.11.35-.47,1-1.06,1.61-.69-.64-.29-1.16.31-1.46.8,0,0,0-.11,0-.11.44.6,1.21.96,1.95.87,1.62-.14,2.26-2.4.78-3.21-1.37-.63-3.04.31-4.13,1.14-.78.74-.63,2.24-.04,3.09.79.91,2.04,1.01,3.13,1.13h0Z"/>
        <path class="cls-4" d="m12.44,161.08c2-1.85,5.56-.15,6.53,2.09.81,1.75-.66,3.94-2.64,3.52-1.17-.16-3.03-1-2.41-2.46.43-.78,1.58-1.03,2.31-.52.36.25.47.83.13,1.13.32-.31.19-.87-.16-1.09-.69-.45-1.78-.18-2.15.55-.52,1.35,1.23,2.03,2.31,2.16,1.77.34,3-1.63,2.32-3.18-.89-2.17-4.21-3.71-6.25-2.19h0Z"/>
        <path class="cls-4" d="m34.73,174.57c.23,1.8-5.23,4.51-6.63,3.37.32.09.36.55.36.85.02,1.1-1.04,1.75-1.97,1.95-1.24.38-2.52.63-3.81.67,1.28-.15,2.55-.41,3.76-.82.93-.26,1.8-.8,1.91-1.81.02-.29.05-.69-.25-.84,1.49.8,6.71-1.56,6.63-3.37h0Z"/>
        <path class="cls-4" d="m7.11,166.43c-1.46-.87-2.34.99-3.14,1.91-.43.54-.83,1.11-.99,1.79-.16.67-.14,1.38.08,2.05-.28-.64-.34-1.38-.19-2.07.13-.7.53-1.33.98-1.86.76-.86,1.93-2.99,3.26-1.81h0Z"/>
        <path class="cls-4" d="m20.95,161.23c2-1.85,5.56-.15,6.53,2.09.81,1.75-.66,3.94-2.64,3.52-1.17-.16-3.03-1-2.4-2.46.43-.78,1.58-1.03,2.31-.52.36.25.47.83.13,1.13.32-.31.19-.87-.16-1.09-.68-.45-1.78-.18-2.15.55-.52,1.35,1.23,2.03,2.31,2.16,1.77.34,3-1.63,2.32-3.18-.89-2.17-4.21-3.71-6.25-2.19h0Z"/>
      </g>
    </g>
  </g>
</svg>