<?xml version="1.0" encoding="UTF-8"?>
<svg id="Layer_2" data-name="Layer 2" xmlns="http://www.w3.org/2000/svg" viewBox="0 0 556.39 189.06">
  <defs>
    <style>
      .cls-1 {
        fill: #39c100;
      }

      .cls-1, .cls-2, .cls-3, .cls-4, .cls-5, .cls-6 {
        stroke-width: 0px;
      }

      .cls-2 {
        fill: #ffda00;
      }

      .cls-3 {
        fill: #0bc6ff;
      }

      .cls-4 {
        fill: #7be6ff;
      }

      .cls-5 {
        fill: #a5a5a5;
      }

      .cls-7 {
        fill: #f9f7f2;
        stroke: #7a7a7a;
        stroke-miterlimit: 10;
        stroke-width: .25px;
      }

      .cls-6 {
        fill: #af8100;
      }
    </style>
  </defs>
  <g id="Layer_2-2" data-name="Layer 2">
    <g>
      <rect class="cls-5" x="48.86" width="507.53" height="37.99"/>
      <rect class="cls-5" x="48.86" y="50.36" width="507.53" height="37.99"/>
      <rect class="cls-5" x="48.86" y="100.71" width="507.53" height="37.99"/>
      <rect class="cls-5" x="48.86" y="151.07" width="507.53" height="37.99"/>
      <polygon class="cls-1" points="33.98 13.46 33.98 24.52 22.52 24.52 22.52 35.98 11.46 35.98 11.46 24.52 0 24.52 0 13.46 11.46 13.46 11.46 2 22.52 2 22.52 13.46 33.98 13.46"/>
      <path class="cls-3" d="m26.85,78.62c0,5.28-4.45,9.56-9.94,9.56s-9.94-4.28-9.94-9.56c0-1.31.28-2.57.78-3.7v-.02s9.16-24.37,9.16-24.37l9.15,24.37v.02c.51,1.14.78,2.39.78,3.7Z"/>
      <path class="cls-4" d="m24.58,79.98c-.39,3.71-3.94,6.37-7.93,5.93-.48-.05-.95-.15-1.39-.28.19.01.37.02.56.02,4.45,0,8.06-3.71,8.06-8.28,0-.4-.03-.79-.08-1.18.63,1.14.93,2.44.78,3.79Z"/>
      <path class="cls-7" d="m30.54,106.52c-.66,1.16-2.04,1.67-3.26,1.27l-8.55,15.02-3.88-2.21,8.55-15.02c-.96-.85-1.24-2.29-.58-3.46.76-1.34,2.46-1.81,3.79-1.05.55.31.95.77,1.17,1.31.58-.09,1.18.02,1.72.33,1.33.76,1.8,2.46,1.03,3.8Z"/>
      <ellipse class="cls-6" cx="14.85" cy="125.15" rx="14.98" ry="11.03" transform="translate(-101.25 76.12) rotate(-60.34)"/>
      <polygon class="cls-2" points="23.09 152.52 6.68 172.28 15.24 172.28 9.31 189.06 26.85 167.92 17.08 167.92 23.09 152.52"/>
    </g>
  </g>
</svg>