<?xml version="1.0" encoding="UTF-8"?>
<svg id="Layer_2" data-name="Layer 2" xmlns="http://www.w3.org/2000/svg" viewBox="0 0 180.2 55.21">
  <defs>
    <style>
      .cls-1 {
        stroke-width: 0px;
      }
    </style>
  </defs>
  <g id="Layer_2-2" data-name="Layer 2">
    <g>
      <path class="cls-1" d="m24.58,6.63c-.23,0-.5-.04-.78-.13-2.84-.81-5.58-1.21-8.22-1.21-1.38,0-2.88.13-4.51.38-1.63.25-3.39.64-5.27,1.16.15,1.09.23,1.97.23,2.62,0,2.34-.14,5.55-.43,9.63l11.04-1.06c3.24-.34,5.24-.5,5.97-.5s1.36.24,1.87.71c.5.47.76,1.1.76,1.89,0,1.53-.77,2.39-2.32,2.57l-6,.53-11.65,1.06c-.07,1.19-.12,2.32-.16,3.39s-.06,2.06-.06,2.99c0,3.71.27,5.9.81,6.55.4.47,1.72.71,3.96.71,1.04,0,2.61-.03,4.7-.09,2.09-.06,3.67-.09,4.73-.09.34,0,.83-.05,1.49-.16s1.14-.16,1.46-.16c1.78,0,2.67.87,2.67,2.62,0,1.41-.71,2.26-2.14,2.55-1.58.32-5,.48-10.26.48s-8.55-.69-10.03-2.07c-1.61-1.5-2.42-4.94-2.42-10.34,0-1.08.03-2.25.08-3.53s.12-2.66.2-4.13c-.19-.39-.28-.8-.28-1.23,0-.57.16-1.08.48-1.54.34-4.86.5-8.45.5-10.76,0-.62-.08-1.53-.25-2.74-.17-1.2-.25-2.11-.25-2.74C.48,1.98,1.32.98,3,.98c.71,0,1.31.24,1.81.73,2.02-.54,3.92-.94,5.71-1.21S14,.1,15.58.1c4.08,0,7.34.49,9.78,1.46,1.13.45,1.69,1.26,1.69,2.42,0,.67-.22,1.27-.66,1.79-.49.57-1.09.86-1.82.86Z"/>
      <path class="cls-1" d="m55.38,18.93l-3.68,3.45-4.49,4.46,8.22,10.74c.42.54.63,1.07.63,1.59,0,.66-.25,1.24-.76,1.74-.5.5-1.08.76-1.71.76s-1.22-.31-1.74-.93c-1.55-1.8-4.27-5.26-8.17-10.39l-4.92,5.07c-.99.89-2.44,2.28-4.34,4.16-.54.61-1.12.91-1.74.91s-1.21-.25-1.7-.76-.74-1.08-.74-1.74c0-.52.21-1.05.63-1.59.47-.62,1.2-1.37,2.19-2.24,1.16-1.02,1.92-1.73,2.29-2.12l5.37-5.62-3.3-4.76c-1.33-1.9-2.49-3.29-3.48-4.16-.64-.57-.96-1.19-.96-1.87s.24-1.27.72-1.79,1.03-.78,1.65-.78c.99,0,2.49,1.29,4.49,3.88l4.36,6.03,4.94-4.54c2.05-1.93,3.44-3.45,4.16-4.54.54-.79,1.18-1.18,1.92-1.18.66,0,1.24.24,1.74.73s.76,1.05.76,1.69c0,.92-.78,2.19-2.34,3.81Z"/>
      <path class="cls-1" d="m73.41,41.44c-1.68,0-3.53-.27-5.55-.81l-.05,12.05c0,.74-.23,1.34-.69,1.81-.46.47-1.05.71-1.78.71s-1.31-.24-1.78-.71c-.46-.47-.69-1.08-.69-1.81l.08-10.08v-10.06c-.05-3.68-.18-7.03-.38-10.06l-.38-5.12c0-1.19.22-2.2.65-3.03.5-.99,1.24-1.49,2.19-1.49.66,0,1.21.23,1.65.69.44.46.67,1.03.67,1.7,0,.15-.03.43-.08.83-.08.52-.14,1-.18,1.44,1.45-.99,2.84-1.74,4.18-2.23,1.34-.5,2.63-.74,3.86-.74,3.45,0,5.97,1.53,7.56,4.59,1.26,2.42,1.89,5.62,1.89,9.6,0,3.63-.97,6.62-2.92,8.97-2.07,2.49-4.82,3.73-8.27,3.73Zm1.74-21.86c-1.55,0-2.94.34-4.18,1.03-.89.49-2.02,1.38-3.38,2.67.22,3.82.33,7.82.33,12.03,1.83.71,3.66,1.06,5.5,1.06,2.1,0,3.71-.78,4.82-2.34.96-1.36,1.44-3.13,1.44-5.29,0-3.06-.37-5.35-1.12-6.87-.75-1.52-1.88-2.28-3.39-2.28Z"/>
      <path class="cls-1" d="m96.7,20.75l-.38,12.53c0,1.33-.07,3.28-.2,5.85-.17,1.68-.99,2.52-2.47,2.52-1.65,0-2.47-.86-2.47-2.57,0-2.03.09-5.09.28-9.16.19-4.08.28-7.13.28-9.16,0-2.66.04-5.69.13-9.11s.13-6.46.13-9.11c0-1.68.82-2.52,2.47-2.52s2.5.84,2.5,2.52c0,2.66-.04,5.69-.13,9.11s-.12,6.46-.12,9.11Z"/>
      <path class="cls-1" d="m113.89,42.05c-2.82,0-5.25-1.04-7.29-3.13-2.27-2.32-3.46-5.44-3.58-9.35-.1-3.8.86-7.14,2.88-10.03,2.35-3.41,5.63-5.12,9.83-5.12,3.36,0,5.91,1.54,7.64,4.61,1.38,2.49,2.04,5.48,1.99,8.97-.05,3.73-1.03,6.92-2.92,9.55-2.15,2.99-5,4.49-8.55,4.49Zm1.51-22.51c-2.47-.02-4.4,1.16-5.77,3.53-1.09,1.9-1.64,4.07-1.64,6.5s.66,4.34,1.99,5.7c1.11,1.13,2.41,1.69,3.91,1.69,1.75,0,3.25-.64,4.51-1.92,1.43-1.41,2.18-3.32,2.27-5.72.24-6.5-1.52-9.76-5.27-9.78Z"/>
      <path class="cls-1" d="m151.21,21.93c-.12,2.1-.96,3.15-2.52,3.15-1.45,0-2.17-.83-2.17-2.5,0-.32-.03-.91-.07-1.76l-.08-2.12c-2.66.32-4.78,1.07-6.38,2.24-1.5,1.09-2.74,2.74-3.73,4.94l.05,13.81c0,1.7-.83,2.55-2.5,2.55-1.48,0-2.22-.85-2.22-2.55v-17.7c0-.55.02-1.39.06-2.5.04-1.11.06-1.94.06-2.5,0-1.7.74-2.55,2.22-2.55,1.65,0,2.48,1.4,2.5,4.18,3.23-3.11,6.81-4.66,10.74-4.66,1.36,0,2.38.51,3.05,1.54.67,1.03,1.01,2.57,1.01,4.64,0,.87,0,1.46-.03,1.76Z"/>
      <path class="cls-1" d="m168.17,41.72c-3.8,0-6.87-.95-9.23-2.85-2.57-2.1-3.86-5.04-3.86-8.82,0-4.37,1.06-8.03,3.18-10.99,2.3-3.23,5.38-4.84,9.23-4.84,2.79,0,5.07.47,6.83,1.41,2.17,1.16,3.25,2.94,3.25,5.34,0,1.68-.95,3.21-2.85,4.59-.84.61-2.62,1.55-5.34,2.82l-9.63,4.56c.94,1.4,2.11,2.45,3.52,3.15,1.4.71,3.04,1.06,4.9,1.06,1.16,0,2.52-.22,4.08-.66,1.98-.55,3.26-1.28,3.83-2.18.57-.9,1.19-1.35,1.84-1.35.59,0,1.11.22,1.57.67.46.45.69.96.69,1.55,0,1.87-1.5,3.47-4.51,4.81-2.57,1.14-5.08,1.71-7.51,1.71Zm-.68-22.96c-2.05,0-3.76.79-5.12,2.38s-2.38,3.98-3.05,7.17l7.74-3.68c3.04-1.48,5.21-2.76,6.5-3.86-1.45-1.34-3.47-2.02-6.08-2.02Z"/>
    </g>
  </g>
</svg>