<?xml version="1.0" encoding="UTF-8"?>
<svg id="Layer_2" data-name="Layer 2" xmlns="http://www.w3.org/2000/svg" viewBox="0 0 222.5 44.34">
  <defs>
    <style>
      .cls-1 {
        stroke-width: 0px;
      }
    </style>
  </defs>
  <g id="Layer_2-2" data-name="Layer 2">
    <g>
      <path class="cls-1" d="m23.52,7.18c-.3,0-.62-.07-.96-.2-2.08-.77-4.84-1.16-8.27-1.16-1.11,0-2.41.08-3.89.24-1.49.16-3.16.41-5,.74l-.05,10.89c3.24-.86,5.68-1.29,7.31-1.29,2.59,0,5.27.15,8.04.45,1.58.17,2.37,1.03,2.37,2.57,0,.76-.24,1.38-.73,1.88-.49.5-1.09.74-1.81.74-.88,0-2.19-.08-3.93-.23s-3.06-.23-3.93-.23c-1.14,0-3.61.49-7.41,1.46l-.23,17.34c0,.72-.24,1.33-.71,1.83-.47.5-1.07.74-1.79.74s-1.32-.25-1.8-.74c-.48-.5-.72-1.11-.72-1.83,0-3.31.06-8.28.19-14.91.13-6.63.19-11.6.19-14.91,0-.74-.01-1.85-.04-3.34-.03-1.49-.04-2.6-.04-3.34s.23-1.36.69-1.87c.46-.5,1.06-.76,1.8-.76.55,0,1.05.15,1.49.45,2.08-.37,3.96-.64,5.62-.82s3.13-.26,4.39-.26c1.93,0,4.14.28,6.63.83,3.38.77,5.07,1.78,5.07,3.03,0,.67-.22,1.27-.66,1.79-.49.59-1.09.88-1.81.88Z"/>
      <path class="cls-1" d="m36.43,28.86c0,1.01.03,2.52.09,4.53.06,2.01.09,3.52.09,4.53,0,.74-.23,1.34-.68,1.81-.45.47-1.05.71-1.79.71s-1.32-.24-1.78-.71c-.46-.47-.69-1.08-.69-1.81,0-1.01-.03-2.52-.09-4.53-.06-2.01-.09-3.52-.09-4.53,0-1.58.08-3.55.25-5.91.17-2.36.25-4.33.25-5.91,0-.76.23-1.37.69-1.84s1.05-.71,1.78-.71,1.31.24,1.78.71c.46.47.69,1.08.69,1.84,0,1.58-.08,3.55-.25,5.91s-.25,4.33-.25,5.91Zm-1.13-20.47c-.81,0-1.5-.29-2.09-.86-.59-.57-.88-1.26-.88-2.07s.29-1.5.88-2.07,1.29-.86,2.09-.86,1.5.29,2.08.86.87,1.26.87,2.07-.29,1.5-.87,2.07c-.58.57-1.27.86-2.08.86Z"/>
      <path class="cls-1" d="m64.28,42.1c-1.45,0-2.26-.79-2.45-2.37l-.71-5.52c-.23-1.97-.35-3.81-.35-5.52,0-.47.03-1.27.09-2.4.06-1.13.09-1.92.09-2.39,0-3.63-.67-5.45-2.02-5.45-1.88,0-3.68,1.12-5.39,3.35-1.55,2.03-2.76,4.61-3.63,7.71-.03.66-.11,1.48-.23,2.47-.1.84-.15,1.66-.15,2.45,0,.5.05,1.26.15,2.27.1,1.01.15,1.76.15,2.27,0,.76-.23,1.37-.69,1.84-.46.47-1.05.71-1.78.71s-1.34-.24-1.79-.71-.68-1.08-.68-1.84c0-.5-.05-1.26-.16-2.27-.11-1.01-.16-1.76-.16-2.27,0-1.73.12-4.13.37-7.2.24-3.07.37-5.47.37-7.2,0-.54-.03-1.34-.09-2.39-.06-1.06-.09-1.86-.09-2.39,0-.72.24-1.32.72-1.78s1.07-.69,1.78-.69c1.55,0,2.39,1.09,2.55,3.28l.07,2.95c2.82-3.76,5.72-5.65,8.7-5.65,2.69,0,4.56,1.19,5.62,3.55.72,1.58,1.12,3.92,1.18,7.01v2.55l-.03,2.34c0,1.39.18,3.2.54,5.41s.54,4,.54,5.38c0,.74-.24,1.34-.72,1.8-.48.46-1.08.69-1.8.69Z"/>
      <path class="cls-1" d="m95.19,18.05c-.2,2.47-.3,4.94-.3,7.41,0,5.6.26,9.82.78,12.68.03.24.05.43.05.58,0,.67-.24,1.23-.71,1.66-.47.44-1.02.66-1.64.66-1.04,0-1.81-.76-2.29-2.27-1.21.89-2.47,1.56-3.77,2.02-1.3.45-2.66.68-4.07.68-3.48,0-6.36-1.16-8.65-3.48-2.35-2.37-3.53-5.41-3.53-9.13,0-4.49,1.19-8.08,3.57-10.79,2.38-2.71,5.47-4.06,9.26-4.06,1.95,0,3.45.3,4.51.91l2.37,1.74c.24-7.08.51-11.84.83-14.29.22-1.5.98-2.24,2.29-2.24,1.53,0,2.29.82,2.29,2.45,0,2.34-.34,7.5-1.01,15.48Zm-11.19.66c-2.82,0-4.94.84-6.35,2.51-1.41,1.67-2.12,4.19-2.12,7.55,0,2.17.77,4.03,2.31,5.6,1.54,1.56,3.34,2.34,5.41,2.34,1.41,0,2.6-.26,3.58-.78.57-.3,1.5-1,2.8-2.09.25-.22.5-.48.73-.78l-.08-4.36.03-2.92.05-2.97c-.64-1.36-1.49-2.38-2.55-3.06s-2.33-1.02-3.81-1.02Z"/>
      <path class="cls-1" d="m134.67,4.87c-4.07,0-6.34,2.82-6.83,8.47l-.08,1.56c2.86-.2,4.71-.3,5.55-.3,2.67,0,4.01.84,4.01,2.52,0,1.23-.66,1.96-1.97,2.19-.57.1-1.24.14-2,.11-.77-.03-2.7.09-5.81.34l-.2,5.75c0,1.04.03,2.61.1,4.69.07,2.08.1,3.64.1,4.66,0,3.19-.19,5.68-.55,7.46-.29,1.34-1.07,2.02-2.34,2.02-.69,0-1.28-.22-1.76-.67-.49-.45-.73-1-.73-1.68,0-.13.02-.3.05-.5.35-2.18.53-4.56.53-7.13l-.08-6.88v-7.31c-2.1.17-3.43.25-3.98.25-1.7,0-2.55-.81-2.55-2.45s1.47-2.54,4.41-2.62l2.42-.08c.05-.94.18-2.22.38-3.83.44-3.73,1.38-6.48,2.82-8.24,1.75-2.13,4.48-3.2,8.19-3.2,2.4,0,3.6.82,3.6,2.45s-1.09,2.42-3.28,2.42Z"/>
      <path class="cls-1" d="m153.42,41.8c-2.82,0-5.25-1.04-7.29-3.13-2.27-2.32-3.46-5.44-3.58-9.35-.1-3.8.86-7.14,2.87-10.03,2.35-3.41,5.63-5.12,9.83-5.12,3.36,0,5.91,1.54,7.64,4.61,1.38,2.49,2.04,5.48,1.99,8.97-.05,3.73-1.03,6.92-2.92,9.55-2.15,2.99-5,4.49-8.55,4.49Zm1.51-22.51c-2.47-.02-4.39,1.16-5.77,3.53-1.09,1.9-1.64,4.07-1.64,6.5s.66,4.34,1.99,5.7c1.11,1.13,2.41,1.69,3.91,1.69,1.75,0,3.25-.64,4.51-1.92,1.43-1.41,2.19-3.32,2.27-5.72.23-6.5-1.52-9.76-5.27-9.78Z"/>
      <path class="cls-1" d="m180.57,41.8c-2.82,0-5.25-1.04-7.29-3.13-2.27-2.32-3.46-5.44-3.58-9.35-.1-3.8.86-7.14,2.87-10.03,2.35-3.41,5.63-5.12,9.83-5.12,3.36,0,5.91,1.54,7.64,4.61,1.38,2.49,2.04,5.48,1.99,8.97-.05,3.73-1.03,6.92-2.92,9.55-2.15,2.99-5,4.49-8.55,4.49Zm1.51-22.51c-2.47-.02-4.39,1.16-5.77,3.53-1.09,1.9-1.64,4.07-1.64,6.5s.66,4.34,1.99,5.7c1.11,1.13,2.41,1.69,3.91,1.69,1.75,0,3.25-.64,4.51-1.92,1.43-1.41,2.18-3.32,2.27-5.72.23-6.5-1.52-9.76-5.27-9.78Z"/>
      <path class="cls-1" d="m221.49,18.05c-.2,2.47-.3,4.94-.3,7.41,0,5.6.26,9.82.78,12.68.03.24.05.43.05.58,0,.67-.24,1.23-.71,1.66-.47.44-1.02.66-1.64.66-1.04,0-1.81-.76-2.29-2.27-1.21.89-2.47,1.56-3.77,2.02-1.3.45-2.66.68-4.07.68-3.48,0-6.36-1.16-8.65-3.48-2.35-2.37-3.53-5.41-3.53-9.13,0-4.49,1.19-8.08,3.57-10.79,2.38-2.71,5.47-4.06,9.26-4.06,1.95,0,3.45.3,4.51.91l2.37,1.74c.23-7.08.51-11.84.83-14.29.22-1.5.98-2.24,2.29-2.24,1.53,0,2.29.82,2.29,2.45,0,2.34-.34,7.5-1.01,15.48Zm-11.19.66c-2.82,0-4.94.84-6.35,2.51-1.41,1.67-2.12,4.19-2.12,7.55,0,2.17.77,4.03,2.31,5.6,1.54,1.56,3.34,2.34,5.41,2.34,1.41,0,2.61-.26,3.58-.78.57-.3,1.5-1,2.8-2.09.25-.22.5-.48.73-.78l-.08-4.36.03-2.92.05-2.97c-.64-1.36-1.49-2.38-2.55-3.06-1.06-.68-2.33-1.02-3.81-1.02Z"/>
    </g>
  </g>
</svg>