<?xml version="1.0" encoding="UTF-8"?>
<svg id="Layer_2" data-name="Layer 2" xmlns="http://www.w3.org/2000/svg" viewBox="0 0 75.27 34.98">
  <defs>
    <style>
      .cls-1 {
        stroke-width: 0px;
      }
    </style>
  </defs>
  <g id="Layer_2-2" data-name="Layer 2">
    <g>
      <path class="cls-1" d="m10.99,26.68c-3.01,0-5.57-.9-7.66-2.71-2.22-1.92-3.33-4.4-3.33-7.44,0-3.7,1.09-7.06,3.29-10.08C5.73,3.1,8.78,1.43,12.44,1.43s6.13.79,7.84,2.37c1.78,1.65,2.68,4.24,2.68,7.79s-1,7.03-3.01,10c-2.31,3.4-5.29,5.1-8.94,5.1Zm1.44-21.97c-2.62,0-4.83,1.3-6.65,3.91-1.68,2.39-2.52,5.03-2.52,7.92,0,2.06.76,3.74,2.29,5.03,1.46,1.22,3.27,1.83,5.43,1.83,2.6,0,4.74-1.31,6.43-3.93,1.51-2.34,2.26-4.97,2.26-7.88,0-2.55-.57-4.35-1.71-5.38-1.09-.99-2.93-1.49-5.53-1.49Z"/>
      <path class="cls-1" d="m39.92,26.36c-.59,0-1.04-.31-1.36-.93-.56-1.08-1.39-2.36-2.52-3.83l-2.84-3.86c-.62.49-1.58,1.18-2.88,2.07-.12,1.66-.18,3.27-.18,4.84,0,.48-.15.87-.44,1.17s-.67.45-1.13.45c-1.08,0-1.62-.73-1.62-2.18,0-.89.06-2.21.18-3.98.12-1.77.18-3.1.18-3.98,0-1.62.02-3.48.07-5.57s.07-3.93.07-5.54c0-.48-.02-1.05-.07-1.7s-.07-1.22-.07-1.7.15-.87.44-1.17c.29-.3.67-.45,1.13-.45s.83.15,1.13.45c.29.3.44.69.44,1.17s.03,1.07.08,1.74c.05.67.08,1.25.08,1.74l-.11,5.16c-.05,1.86-.07,3.72-.05,5.58,1.45-1.11,2.85-2.33,4.2-3.65l3.53-3.64c.35-.36.73-.54,1.14-.54s.79.17,1.13.5c.34.33.5.72.5,1.15,0,.36-.15.72-.46,1.07-1.31,1.54-2.93,3.19-4.86,4.95l3.49,4.76c1.63,2.23,2.45,3.69,2.45,4.36,0,.43-.17.8-.5,1.11-.34.31-.72.46-1.16.46Z"/>
      <path class="cls-1" d="m56.81,26.76c-.2,0-.57-.24-1.11-.71-.48-.44-.84-.83-1.07-1.17-1.03.56-1.93.97-2.71,1.26-.78.28-1.43.42-1.96.42-2.5,0-4.32-.71-5.46-2.12-1.08-1.32-1.62-3.35-1.62-6.09,0-2.58.89-4.8,2.67-6.63,1.78-1.84,3.9-2.76,6.37-2.76.93,0,1.97.24,3.12.72,1.45.6,2.18,1.32,2.18,2.16,0,.29-.11.54-.32.77-.11.41-.19,1.07-.25,2-.06.93-.09,2.12-.1,3.57-.01,1.33.08,2.37.27,3.14.11.47.44,1.41,1.01,2.82.07.19.2.48.37.85l.1.27c0,.43-.15.78-.45,1.06-.3.28-.65.42-1.04.42Zm-3.33-11.14c0-.46.03-.96.09-1.5.06-.54.15-1.11.26-1.72-.4-.2-.73-.35-1.02-.45s-.51-.14-.68-.14c-1.66,0-3.08.68-4.29,2.03s-1.8,2.91-1.8,4.67.31,3.07.93,3.94c.62.88,1.55,1.31,2.79,1.31,1.03,0,1.9-.19,2.61-.56.38-.2.92-.61,1.62-1.22-.34-2.83-.51-4.95-.51-6.36Z"/>
      <path class="cls-1" d="m75.06,11.41l-5.54,11.99c-1.37,2.92-2.42,5.36-3.14,7.32l-1.06,3.11c-.28.77-.76,1.15-1.44,1.15-.45,0-.84-.15-1.16-.44-.33-.29-.49-.66-.49-1.1,0-1.07,1.15-4.16,3.46-9.28l-5.74-11.04-.72-1.17c-.29-.49-.43-.9-.43-1.23,0-.44.17-.82.5-1.15.34-.33.71-.5,1.13-.5.49,0,.87.19,1.14.56,1.82,2.52,3.77,6.11,5.85,10.77l2.37-5.53c.85-1.91,1.68-3.56,2.47-4.94.34-.6.79-.9,1.35-.9.44,0,.83.16,1.16.46.34.31.5.68.5,1.11,0,.23-.07.5-.21.8Z"/>
    </g>
  </g>
</svg>