<?xml version="1.0" encoding="UTF-8"?>
<svg id="Layer_2" data-name="Layer 2" xmlns="http://www.w3.org/2000/svg" viewBox="0 0 105.75 40.35">
  <defs>
    <style>
      .cls-1 {
        stroke-width: 0px;
      }
    </style>
  </defs>
  <g id="Layer_2-2" data-name="Layer 2">
    <g>
      <path class="cls-1" d="m25.44,39.01c-.64,0-1.23-.27-1.79-.81-5.56-5.5-11.75-9.19-18.55-11.09l.2,4.94.13,4.97c0,.74-.24,1.36-.72,1.85s-1.08.74-1.8.74-1.32-.25-1.8-.74c-.48-.5-.72-1.11-.72-1.85,0-1.33-.06-3.31-.19-5.94-.13-2.63-.19-4.61-.19-5.94,0-1.55.17-3.85.5-6.91s.5-5.35.5-6.88c0-.86-.08-2.13-.24-3.81s-.24-2.95-.24-3.81c0-.96.27-1.8.81-2.52C1.97.33,2.86-.07,3.98.01l6.08.48c2.3.29,4.24.85,5.82,1.69,6.81,3.61,10.21,8.03,10.21,13.24,0,2.55-1.16,4.81-3.48,6.78-1.87,1.58-4.19,2.78-6.98,3.6,5.23,2.81,9.13,5.76,11.72,8.87.44.54.66,1.11.66,1.71,0,.71-.26,1.32-.77,1.84-.51.52-1.11.78-1.8.78ZM9.38,5.68l-3.73-.3.25,3.05c.12,1.24.18,2.26.18,3.05,0,1.34-.11,3.02-.33,5.02l-.53,5.02c.23,0,.6,0,1.1.03s.87.02,1.12.02c4.29,0,7.5-.57,9.63-1.71.94-.52,1.81-1.2,2.62-2.04.89-.94,1.34-1.74,1.34-2.39,0-2.34-1.33-4.51-3.98-6.53-2.44-1.85-4.99-2.92-7.66-3.2Z"/>
      <path class="cls-1" d="m44.77,39.89c-3.8,0-6.87-.95-9.23-2.85-2.57-2.1-3.86-5.04-3.86-8.82,0-4.37,1.06-8.03,3.18-10.99,2.3-3.23,5.38-4.84,9.23-4.84,2.79,0,5.07.47,6.83,1.41,2.17,1.16,3.25,2.94,3.25,5.34,0,1.68-.95,3.21-2.85,4.59-.84.61-2.62,1.55-5.34,2.82l-9.63,4.56c.94,1.4,2.11,2.45,3.52,3.15s3.04,1.06,4.9,1.06c1.16,0,2.52-.22,4.08-.66,1.98-.55,3.26-1.28,3.83-2.18.57-.9,1.18-1.35,1.84-1.35.59,0,1.11.22,1.58.67.46.45.69.96.69,1.55,0,1.87-1.5,3.47-4.51,4.81-2.57,1.14-5.08,1.71-7.51,1.71Zm-.68-22.96c-2.05,0-3.76.79-5.12,2.38s-2.38,3.98-3.05,7.17l7.74-3.68c3.04-1.48,5.21-2.76,6.5-3.86-1.45-1.34-3.47-2.02-6.08-2.02Z"/>
      <path class="cls-1" d="m78.3,19.32c-.92,0-1.57-.31-1.94-.93-.25-.44-.47-1.34-.66-2.72-1.26.32-3.2.91-5.82,1.76-2.71,1.08-4.07,2.4-4.08,3.98.5.18,1,.32,1.49.4,3.87.69,6.74,1.64,8.62,2.85,2.74,1.76,4.11,4.32,4.11,7.66,0,2.74-1.18,4.81-3.55,6.2-1.97,1.14-4.45,1.71-7.46,1.71-2.2,0-4.3-.37-6.3-1.11-2.59-.94-3.88-2.25-3.88-3.93,0-.67.27-1.26.79-1.76s1.13-.76,1.8-.76c.52,0,1.19.4,2.02,1.21.4.39,1.31.71,2.72.96,1.13.2,2.08.3,2.85.3,1.41,0,2.65-.17,3.73-.5,1.56-.49,2.34-1.26,2.34-2.32,0-2.29-1.6-3.83-4.79-4.64l-2.62-.58c-2.24-.49-3.82-1.06-4.76-1.71-1.36-.94-2.04-2.36-2.04-4.26,0-3.51,1.65-6.02,4.97-7.51,1.01-.45,2.62-1,4.84-1.63,2.22-.63,3.81-1.16,4.76-1.6.69-.3,1.44-.45,2.24-.45.72,0,1.31.24,1.78.71.46.47.69,1.08.69,1.84,0,.49.1,1.2.31,2.14.21.94.31,1.66.31,2.14,0,.76-.23,1.37-.69,1.84-.46.47-1.06.71-1.78.71Z"/>
      <path class="cls-1" d="m103.28,17.25c-.35,0-.77-.02-1.25-.05-.48-.03-.89-.05-1.25-.05-.39,0-1.53.13-3.43.38l.48,14.9.03,1.11.02,1.29c.07,3.68-.81,5.52-2.65,5.52-.67,0-1.26-.22-1.75-.66-.5-.44-.74-.98-.74-1.64s.03-1.6.08-2.87c.05-1.28.08-2.23.08-2.87l-.5-14.72c-1.23-.05-3.09-.19-5.6-.43-1.5-.2-2.24-1.03-2.24-2.5,0-.74.23-1.35.68-1.84s1.03-.73,1.74-.73l5.29.43c0-.86-.04-2-.11-3.44-.08-1.44-.11-2.47-.11-3.11,0-.71.24-1.29.73-1.75.49-.46,1.08-.69,1.79-.69,1.51,0,2.4,1.24,2.65,3.71.05.62.08,1.37.08,2.24l-.05,1.46-.03,1.56c2.08-.27,3.28-.4,3.58-.4,1.75,0,2.89.08,3.43.25,1.03.34,1.54,1.13,1.54,2.37,0,.74-.23,1.35-.69,1.83-.46.48-1.06.72-1.78.72Z"/>
    </g>
  </g>
</svg>