<?xml version="1.0" encoding="UTF-8"?>
<svg id="Layer_2" data-name="Layer 2" xmlns="http://www.w3.org/2000/svg" viewBox="0 0 48.09 34.3">
  <defs>
    <style>
      .cls-1 {
        stroke-width: 0px;
      }
    </style>
  </defs>
  <g id="Layer_2-2" data-name="Layer 2">
    <path class="cls-1" d="m35.64,9.41H7.17l5.83-5.83c.82-.82.82-2.15,0-2.97-.82-.82-2.15-.82-2.97,0L.62,10.03c-.82.82-.82,2.15,0,2.97l9.41,9.41c.41.41.95.61,1.48.61s1.07-.21,1.48-.61c.82-.82.82-2.15,0-2.97l-5.83-5.83h28.47c4.55,0,8.24,3.7,8.24,8.24s-3.7,8.24-8.24,8.24h-17.32c-1.16,0-2.1.94-2.1,2.1s.94,2.1,2.1,2.1h17.32c6.86,0,12.44-5.58,12.44-12.44s-5.58-12.44-12.44-12.44Z"/>
  </g>
</svg>