<?xml version="1.0" encoding="UTF-8"?>
<svg id="Layer_2" data-name="Layer 2" xmlns="http://www.w3.org/2000/svg" viewBox="0 0 251.71 42.86">
  <defs>
    <style>
      .cls-1 {
        stroke-width: 0px;
      }
    </style>
  </defs>
  <g id="Layer_2-2" data-name="Layer 2">
    <g>
      <path class="cls-1" d="m23.52,7.06c-.3,0-.62-.07-.96-.2-2.08-.77-4.84-1.16-8.27-1.16-1.11,0-2.41.08-3.89.24-1.49.16-3.16.41-5,.74l-.05,10.89c3.24-.86,5.68-1.29,7.31-1.29,2.59,0,5.27.15,8.04.45,1.58.17,2.37,1.03,2.37,2.57,0,.76-.24,1.38-.73,1.88-.49.5-1.09.74-1.82.74-.87,0-2.18-.08-3.93-.23s-3.06-.23-3.93-.23c-1.14,0-3.61.49-7.41,1.46l-.23,17.34c0,.72-.24,1.33-.71,1.83-.47.5-1.07.74-1.79.74s-1.32-.25-1.8-.74c-.48-.5-.72-1.11-.72-1.83,0-3.31.06-8.28.19-14.91.12-6.63.19-11.6.19-14.91,0-.74-.01-1.85-.04-3.34-.03-1.49-.04-2.6-.04-3.34s.23-1.36.69-1.87c.46-.5,1.06-.76,1.8-.76.55,0,1.05.15,1.49.45,2.08-.37,3.96-.64,5.62-.82,1.66-.18,3.13-.26,4.39-.26,1.93,0,4.14.28,6.63.83,3.38.77,5.07,1.78,5.07,3.03,0,.67-.22,1.27-.65,1.79-.49.59-1.09.88-1.82.88Z"/>
      <path class="cls-1" d="m36.43,28.74c0,1.01.03,2.52.09,4.53.06,2.01.09,3.52.09,4.53,0,.74-.23,1.34-.68,1.81-.45.47-1.05.71-1.79.71s-1.31-.24-1.78-.71c-.46-.47-.69-1.08-.69-1.81,0-1.01-.03-2.52-.09-4.53-.06-2.01-.09-3.52-.09-4.53,0-1.58.08-3.55.25-5.91s.25-4.33.25-5.91c0-.76.23-1.37.69-1.84.46-.47,1.05-.71,1.78-.71s1.31.24,1.78.71c.46.47.69,1.08.69,1.84,0,1.58-.08,3.55-.25,5.91s-.25,4.33-.25,5.91Zm-1.13-20.47c-.81,0-1.5-.29-2.09-.86-.59-.57-.88-1.26-.88-2.07s.29-1.5.88-2.07,1.29-.86,2.09-.86,1.5.29,2.08.86c.58.57.87,1.26.87,2.07s-.29,1.5-.87,2.07c-.58.57-1.27.86-2.08.86Z"/>
      <path class="cls-1" d="m64.28,41.97c-1.45,0-2.26-.79-2.45-2.37l-.71-5.52c-.24-1.97-.35-3.81-.35-5.52,0-.47.03-1.27.09-2.4s.09-1.92.09-2.39c0-3.63-.67-5.45-2.02-5.45-1.88,0-3.68,1.12-5.39,3.35-1.55,2.03-2.76,4.61-3.63,7.71-.03.66-.11,1.48-.23,2.47-.1.84-.15,1.66-.15,2.45,0,.5.05,1.26.15,2.27.1,1.01.15,1.76.15,2.27,0,.76-.23,1.37-.69,1.84-.46.47-1.06.71-1.78.71s-1.34-.24-1.79-.71-.68-1.08-.68-1.84c0-.5-.05-1.26-.16-2.27-.11-1.01-.16-1.76-.16-2.27,0-1.73.12-4.13.37-7.2.24-3.07.37-5.47.37-7.2,0-.54-.03-1.34-.09-2.39-.06-1.06-.09-1.86-.09-2.39,0-.72.24-1.32.72-1.78s1.07-.69,1.78-.69c1.55,0,2.4,1.09,2.55,3.28l.08,2.95c2.82-3.76,5.72-5.65,8.7-5.65,2.69,0,4.56,1.19,5.62,3.55.72,1.58,1.12,3.92,1.19,7.01v2.55l-.03,2.34c0,1.39.18,3.2.54,5.41s.54,4,.54,5.38c0,.74-.24,1.34-.72,1.8-.48.46-1.08.69-1.8.69Z"/>
      <path class="cls-1" d="m95.19,17.92c-.2,2.47-.3,4.94-.3,7.41,0,5.6.26,9.82.78,12.68.03.24.05.43.05.58,0,.67-.24,1.23-.71,1.66-.47.44-1.02.66-1.64.66-1.04,0-1.81-.76-2.29-2.27-1.21.89-2.47,1.56-3.77,2.02-1.3.45-2.66.68-4.07.68-3.48,0-6.36-1.16-8.65-3.48-2.35-2.37-3.53-5.41-3.53-9.13,0-4.49,1.19-8.08,3.57-10.79s5.47-4.06,9.26-4.06c1.95,0,3.45.3,4.51.91l2.37,1.74c.24-7.08.51-11.84.83-14.29.22-1.5.98-2.24,2.29-2.24,1.53,0,2.29.82,2.29,2.45,0,2.34-.34,7.5-1.01,15.48Zm-11.19.66c-2.82,0-4.94.84-6.35,2.51-1.41,1.67-2.12,4.19-2.12,7.55,0,2.17.77,4.03,2.31,5.6,1.54,1.56,3.34,2.34,5.41,2.34,1.41,0,2.61-.26,3.58-.78.57-.3,1.5-1,2.8-2.09.25-.22.5-.48.73-.78l-.08-4.36.02-2.92.05-2.97c-.64-1.36-1.49-2.38-2.55-3.06-1.06-.68-2.33-1.02-3.81-1.02Z"/>
      <path class="cls-1" d="m147.9,17.62c-1.31,5.48-3.03,11.67-5.14,18.58-.47,1.53-1.25,3.1-2.34,4.71-.59.89-1.39,1.33-2.4,1.31-1.83-.03-3.26-2.31-4.29-6.83-.34-1.45-.68-3.41-1.03-5.9l-.83-5.62-2.07,4.82-3.83,10.41c-.22.64-.54,1.13-.96,1.46-.5.97-1.31,1.48-2.42,1.51-1.28.05-2.51-2.45-3.71-7.51-.61-2.6-1.21-6.13-1.81-10.59l-.61-3.78c-.22-1.51-.33-2.78-.33-3.81,0-.71.25-1.29.74-1.75.5-.46,1.1-.69,1.8-.69,1.28,0,2.07.7,2.37,2.09.22.99.39,2.22.53,3.68l.38,3.71,1.49,11.32c1.87-5.18,3.8-11.14,5.8-17.9.55-1.87,1.52-2.8,2.9-2.8s2.23,1.04,2.7,3.13c.44,1.97.98,4.99,1.64,9.08.67,4.23,1.27,7.54,1.79,9.91l1.84-6.86,3.25-13.74c.25-1.02.97-1.54,2.17-1.54.71,0,1.32.24,1.84.72.52.48.78,1.06.78,1.73,0,.08-.08.47-.25,1.16Z"/>
      <path class="cls-1" d="m172.73,41.85c-.32,0-.9-.37-1.74-1.11-.76-.69-1.32-1.3-1.69-1.84-1.61.88-3.03,1.53-4.26,1.98-1.23.45-2.25.67-3.08.67-3.93,0-6.8-1.11-8.6-3.33-1.7-2.08-2.55-5.28-2.55-9.58,0-4.07,1.4-7.55,4.2-10.44,2.8-2.89,6.14-4.34,10.02-4.34,1.46,0,3.1.38,4.92,1.13,2.29.94,3.43,2.08,3.43,3.4,0,.45-.17.86-.5,1.21-.17.64-.3,1.69-.39,3.15-.09,1.46-.15,3.34-.16,5.62-.02,2.08.13,3.73.43,4.94.17.74.7,2.22,1.59,4.44.12.3.31.75.58,1.34l.15.43c0,.67-.24,1.23-.71,1.66-.47.44-1.02.66-1.64.66Zm-5.24-17.52c0-.72.05-1.51.14-2.36.09-.85.23-1.75.42-2.71-.62-.32-1.16-.55-1.6-.71-.45-.15-.8-.23-1.07-.23-2.6,0-4.85,1.06-6.74,3.19-1.89,2.13-2.84,4.58-2.84,7.35s.49,4.82,1.46,6.2,2.44,2.07,4.39,2.07c1.61,0,2.98-.29,4.11-.88.6-.32,1.45-.96,2.55-1.92-.54-4.45-.81-7.79-.81-10.01Z"/>
      <path class="cls-1" d="m196.33,18.71c-.35,0-.77-.02-1.25-.05-.48-.03-.89-.05-1.25-.05-.39,0-1.53.13-3.43.38l.48,14.9.03,1.11.03,1.29c.07,3.68-.82,5.52-2.65,5.52-.67,0-1.26-.22-1.75-.66-.5-.44-.74-.98-.74-1.64s.02-1.6.08-2.87c.05-1.28.08-2.23.08-2.87l-.5-14.72c-1.23-.05-3.09-.19-5.6-.43-1.5-.2-2.24-1.03-2.24-2.5,0-.74.23-1.35.68-1.84s1.03-.73,1.74-.73l5.29.43c0-.86-.04-2-.11-3.44-.08-1.44-.11-2.47-.11-3.11,0-.71.24-1.29.73-1.75.49-.46,1.08-.69,1.79-.69,1.51,0,2.4,1.24,2.65,3.71.05.62.08,1.37.08,2.24l-.05,1.46-.03,1.56c2.08-.27,3.28-.4,3.58-.4,1.75,0,2.89.08,3.43.25,1.03.34,1.54,1.13,1.54,2.37,0,.74-.23,1.35-.69,1.83-.46.48-1.05.72-1.78.72Z"/>
      <path class="cls-1" d="m215.56,41.34c-3.8,0-6.87-.95-9.23-2.85-2.57-2.1-3.86-5.04-3.86-8.82,0-4.37,1.06-8.03,3.18-10.99,2.3-3.23,5.38-4.84,9.23-4.84,2.79,0,5.07.47,6.83,1.41,2.17,1.16,3.25,2.94,3.25,5.34,0,1.68-.95,3.21-2.85,4.59-.84.61-2.62,1.55-5.34,2.82l-9.63,4.56c.94,1.4,2.11,2.45,3.52,3.15,1.4.71,3.04,1.06,4.9,1.06,1.16,0,2.52-.22,4.08-.66,1.98-.55,3.26-1.28,3.83-2.18.57-.9,1.18-1.35,1.84-1.35.59,0,1.11.22,1.58.67s.69.96.69,1.55c0,1.87-1.5,3.47-4.51,4.81-2.57,1.14-5.08,1.71-7.51,1.71Zm-.68-22.96c-2.05,0-3.76.79-5.12,2.38s-2.38,3.98-3.05,7.17l7.74-3.68c3.04-1.48,5.21-2.76,6.5-3.86-1.45-1.34-3.47-2.02-6.08-2.02Z"/>
      <path class="cls-1" d="m251.69,21.55c-.12,2.1-.96,3.15-2.52,3.15-1.45,0-2.17-.83-2.17-2.5,0-.32-.03-.91-.08-1.76l-.08-2.12c-2.66.32-4.78,1.07-6.38,2.24-1.5,1.09-2.74,2.74-3.73,4.94l.05,13.81c0,1.7-.83,2.55-2.5,2.55-1.48,0-2.22-.85-2.22-2.55v-17.7c0-.55.02-1.39.06-2.5.04-1.11.06-1.94.06-2.5,0-1.7.74-2.55,2.22-2.55,1.65,0,2.48,1.4,2.5,4.18,3.23-3.11,6.81-4.66,10.74-4.66,1.36,0,2.38.51,3.05,1.54.67,1.03,1.01,2.57,1.01,4.64,0,.87,0,1.46-.03,1.76Z"/>
    </g>
  </g>
</svg>