<?xml version="1.0" encoding="UTF-8"?>
<svg id="Layer_2" data-name="Layer 2" xmlns="http://www.w3.org/2000/svg" viewBox="0 0 67.48 67.48">
  <defs>
    <style>
      .cls-1 {
        fill: #3f3f3f;
        stroke-width: 0px;
      }
    </style>
  </defs>
  <g id="Layer_2-2" data-name="Layer 2">
    <path class="cls-1" d="m64,26.08c2.01.36,3.47,2.11,3.47,4.15v7c0,2.04-1.46,3.79-3.47,4.15l-4.18.75c-.46,1.42-1.04,2.78-1.71,4.09l2.43,3.5c1.17,1.68.96,3.95-.48,5.39l-4.95,4.95c-1.44,1.44-3.71,1.65-5.39.48l-3.5-2.43c-1.31.67-2.67,1.25-4.09,1.71l-.75,4.18c-.36,2.01-2.11,3.47-4.15,3.47h-7c-2.04,0-3.79-1.46-4.15-3.47l-.75-4.18c-1.42-.46-2.78-1.03-4.09-1.71l-3.5,2.43c-1.68,1.17-3.95.96-5.39-.48l-4.95-4.95c-1.44-1.44-1.65-3.71-.48-5.39l2.43-3.5c-.67-1.31-1.25-2.67-1.71-4.09l-4.18-.75c-2.01-.36-3.47-2.11-3.47-4.15v-7c0-2.04,1.46-3.79,3.47-4.15l4.18-.75c.46-1.42,1.04-2.78,1.71-4.09l-2.43-3.5c-1.17-1.68-.96-3.95.48-5.39l4.95-4.95c1.44-1.44,3.71-1.65,5.39-.48l3.5,2.43c1.31-.67,2.67-1.25,4.09-1.71l.75-4.18c.36-2.01,2.11-3.47,4.15-3.47h7c2.04,0,3.79,1.46,4.15,3.47l.75,4.18c1.42.46,2.78,1.03,4.09,1.71l3.5-2.43c1.68-1.17,3.95-.96,5.39.48l4.95,4.95c1.44,1.44,1.65,3.71.48,5.39l-2.43,3.5c.67,1.31,1.25,2.67,1.71,4.09l4.18.75Zm-30.27,20.3c6.99,0,12.65-5.66,12.65-12.65s-5.67-12.65-12.65-12.65-12.65,5.66-12.65,12.65,5.67,12.65,12.65,12.65Z"/>
  </g>
</svg>