<?xml version="1.0" encoding="UTF-8"?>
<svg id="Layer_2" data-name="Layer 2" xmlns="http://www.w3.org/2000/svg" viewBox="0 0 550.54 67.91">
  <defs>
    <style>
      .cls-1 {
        fill: #fff;
        stroke-width: 0px;
      }
    </style>
  </defs>
  <g id="Layer_2-2" data-name="Layer 2">
    <g>
      <path class="cls-1" d="m37.75,35.54H9.41v24.06h31.59v7.23H0V.1h39.37v7.23H9.41v21.09h28.34v7.13Z"/>
      <path class="cls-1" d="m57.33,18.91l7.46,10.3c1.95,2.67,3.57,5.15,5.3,7.82h.32c1.73-2.87,3.46-5.35,5.19-7.92l7.36-10.2h10.28l-17.85,23.17,18.39,24.75h-10.82l-7.68-10.79c-2.06-2.77-3.79-5.44-5.62-8.32h-.22c-1.73,2.87-3.57,5.44-5.52,8.32l-7.57,10.79h-10.49l18.6-24.45-17.74-23.46h10.6Z"/>
      <path class="cls-1" d="m113.57,5.44c.11,2.97-2.27,5.35-6.06,5.35-3.35,0-5.73-2.38-5.73-5.35s2.49-5.44,5.95-5.44,5.84,2.38,5.84,5.44Zm-10.6,61.38V18.91h9.52v47.92h-9.52Z"/>
      <path class="cls-1" d="m139.74,5.15v13.76h13.63v6.63h-13.63v25.84c0,5.94,1.84,9.31,7.14,9.31,2.49,0,4.33-.3,5.52-.59l.43,6.53c-1.84.69-4.76,1.19-8.44,1.19-4.44,0-8-1.29-10.28-3.66-2.7-2.57-3.68-6.83-3.68-12.47v-26.14h-8.11v-6.63h8.11V7.42l9.3-2.28Z"/>
      <path class="cls-1" d="m198.48,5.15v13.76h13.63v6.63h-13.63v25.84c0,5.94,1.84,9.31,7.14,9.31,2.49,0,4.33-.3,5.52-.59l.43,6.53c-1.84.69-4.76,1.19-8.44,1.19-4.44,0-8-1.29-10.28-3.66-2.7-2.57-3.68-6.83-3.68-12.47v-26.14h-8.11v-6.63h8.11V7.42l9.3-2.28Z"/>
      <path class="cls-1" d="m269.54,42.47c0,17.72-13.41,25.44-26.07,25.44-14.17,0-25.1-9.5-25.1-24.65,0-16.04,11.47-25.44,25.96-25.44s25.2,10,25.2,24.65Zm-41.54.49c0,10.49,6.6,18.41,15.9,18.41s15.9-7.82,15.9-18.61c0-8.12-4.44-18.41-15.68-18.41s-16.12,9.5-16.12,18.61Z"/>
      <path class="cls-1" d="m366.24,37.52c-.54-9.31-1.19-20.49-1.08-28.81h-.32c-2.49,7.82-5.52,16.14-9.19,25.34l-12.87,32.37h-7.14l-11.79-31.78c-3.46-9.4-6.38-18.02-8.44-25.94h-.22c-.22,8.32-.76,19.5-1.41,29.5l-1.95,28.61h-8.98L307.93.1h12.01l12.44,32.27c3.03,8.22,5.52,15.54,7.36,22.47h.32c1.84-6.73,4.43-14.06,7.68-22.47L360.72.1h12.01l4.54,66.73h-9.19l-1.84-29.3Z"/>
      <path class="cls-1" d="m397.38,44.45c.22,11.78,8.44,16.63,17.96,16.63,6.81,0,10.93-1.09,14.49-2.47l1.62,6.24c-3.35,1.39-9.09,2.97-17.42,2.97-16.12,0-25.74-9.7-25.74-24.16s9.3-25.84,24.55-25.84c17.09,0,21.63,13.76,21.63,22.57,0,1.78-.22,3.17-.32,4.06h-36.78Zm27.91-6.24c.11-5.54-2.49-14.16-13.2-14.16-9.63,0-13.85,8.12-14.6,14.16h27.8Z"/>
      <path class="cls-1" d="m446.27,31.88c0-4.95-.11-9.01-.43-12.97h8.44l.54,7.92h.22c2.6-4.55,8.65-9.01,17.31-9.01,7.25,0,18.5,3.96,18.5,20.39v28.61h-9.52v-27.62c0-7.72-3.14-14.16-12.12-14.16-6.27,0-11.14,4.06-12.76,8.91-.43,1.09-.65,2.57-.65,4.06v28.81h-9.52V31.88Z"/>
      <path class="cls-1" d="m550.11,53.76c0,4.95.11,9.31.43,13.07h-8.44l-.54-7.82h-.22c-2.49,3.86-8,8.91-17.31,8.91-8.22,0-18.06-4.16-18.06-20.99v-28.02h9.52v26.53c0,9.11,3.03,15.25,11.68,15.25,6.38,0,10.82-4.06,12.55-7.92.54-1.29.87-2.87.87-4.46v-29.4h9.52v34.85Z"/>
    </g>
  </g>
</svg>