<?xml version="1.0" encoding="UTF-8"?>
<svg id="Layer_2" data-name="Layer 2" xmlns="http://www.w3.org/2000/svg" viewBox="0 0 385.86 58.58">
  <defs>
    <style>
      .cls-1 {
        fill: #fff;
        stroke-width: 0px;
      }
    </style>
  </defs>
  <g id="Layer_2-2" data-name="Layer 2">
    <g>
      <path class="cls-1" d="m10.24,4.88v43.7h16.22v8.82H0V4.88h10.24Z"/>
      <path class="cls-1" d="m63.69,27.01c3.39,3.07,5.75,7.79,5.75,13.38s-2.36,10.24-5.75,13.31c-2.91,2.68-7.32,4.8-13.78,4.8s-10.87-2.13-13.78-4.8c-3.39-3.07-5.75-7.79-5.75-13.31s2.36-10.31,5.75-13.38c2.91-2.68,7.32-4.8,13.78-4.8s10.87,2.13,13.78,4.8Zm-4.17,13.38c0-5.35-4.09-9.68-9.61-9.68s-9.61,4.33-9.61,9.68,4.02,9.61,9.61,9.61,9.61-4.41,9.61-9.61Z"/>
      <path class="cls-1" d="m102.98,23.31h9.61v34.09h-9.61v-4.41c-3.46,4.96-8.03,5.51-10.47,5.51-10.47,0-17.4-8.19-17.4-18.19s6.85-18.11,16.93-18.11c2.6,0,7.72.47,10.94,5.51v-4.41Zm-17.95,17.01c0,5.43,3.94,9.68,9.45,9.68s9.45-4.25,9.45-9.68-3.94-9.61-9.45-9.61-9.45,4.17-9.45,9.61Z"/>
      <path class="cls-1" d="m147.86,0h9.61v57.4h-9.61v-4.41c-3.46,4.96-8.03,5.51-10.47,5.51-10.47,0-17.4-8.19-17.4-18.19s6.85-18.11,16.93-18.11c2.6,0,7.72.47,10.94,5.51V0Zm-17.95,40.31c0,5.43,3.94,9.68,9.45,9.68s9.45-4.25,9.45-9.68-3.94-9.61-9.45-9.61-9.45,4.17-9.45,9.61Z"/>
      <path class="cls-1" d="m212.97,29.29h24.09v.63c0,3.54-.47,14.57-7.72,21.73-5.43,5.43-12.13,6.93-18.66,6.93s-13.31-1.34-19.05-7.09c-1.81-1.81-7.79-8.42-7.79-20.23,0-10.16,4.57-16.38,7.72-19.53,3.94-4.02,10.55-8.03,20.71-8.03,3.94,0,8.11.63,12.13,2.76,3.39,1.73,7.09,4.88,9.84,9.61l-8.9,4.8c-1.81-3.54-4.49-5.35-6.14-6.22-2.2-1.1-4.96-1.65-7.4-1.65-4.17,0-8.9,1.5-12.13,4.65-2.99,2.91-5.27,7.95-5.27,13.86,0,7.01,2.99,11.18,5.2,13.31,2.36,2.28,6.06,4.49,11.65,4.49,3.46,0,7.4-.94,10.31-3.15,2.05-1.57,4.09-4.25,4.96-8.03h-13.54v-8.82Z"/>
      <path class="cls-1" d="m271.23,23.31h9.61v34.09h-9.61v-4.41c-3.46,4.96-8.03,5.51-10.47,5.51-10.47,0-17.4-8.19-17.4-18.19s6.85-18.11,16.93-18.11c2.6,0,7.72.47,10.94,5.51v-4.41Zm-17.95,17.01c0,5.43,3.94,9.68,9.45,9.68s9.45-4.25,9.45-9.68-3.94-9.61-9.45-9.61-9.45,4.17-9.45,9.61Z"/>
      <path class="cls-1" d="m289.96,23.31h9.61v3.86c3.62-4.57,8.11-4.96,10.16-4.96,7.16,0,9.92,4.49,10.79,6.22,1.65-2.68,5.04-6.22,10.94-6.22,5.28,0,7.87,2.44,9.21,4.17,2.2,2.91,2.36,5.83,2.36,9.61v21.42h-9.61v-18.58c0-4.02-.87-5.83-1.57-6.69-1.26-1.57-2.99-1.73-3.94-1.73-2.6,0-4.25,1.18-5.28,2.99-1.26,2.05-1.34,4.8-1.34,6.61v17.4h-9.61v-18.58c0-4.02-.87-5.83-1.57-6.69-1.26-1.57-2.99-1.73-3.94-1.73-2.6,0-4.25,1.18-5.27,2.99-1.26,2.05-1.34,4.8-1.34,6.61v17.4h-9.61V23.31Z"/>
      <path class="cls-1" d="m385.62,47.87c-1.02,2.52-4.88,10.63-16.77,10.63-5.51,0-9.68-1.58-13.07-4.8-3.78-3.54-5.35-7.95-5.35-13.31,0-6.77,2.76-10.94,5.2-13.38,4.02-3.94,8.74-4.8,12.83-4.8,6.93,0,10.94,2.76,13.31,5.59,3.62,4.33,4.09,9.68,4.09,13.38v.79h-25.51c0,2.05.55,4.25,1.65,5.75,1.02,1.42,3.15,3.23,6.85,3.23s6.38-1.73,7.95-4.49l8.82,1.42Zm-8.82-12.05c-.79-4.65-4.57-6.85-8.11-6.85s-7.24,2.28-8.03,6.85h16.14Z"/>
    </g>
  </g>
</svg>