<?xml version="1.0" encoding="UTF-8"?>
<svg id="Layer_2" data-name="Layer 2" xmlns="http://www.w3.org/2000/svg" viewBox="0 0 339.96 58.5">
  <defs>
    <style>
      .cls-1 {
        fill: #fff;
        stroke-width: 0px;
      }
    </style>
  </defs>
  <g id="Layer_2-2" data-name="Layer 2">
    <g>
      <path class="cls-1" d="m15.2,4.88c7.24,0,10.94,1.89,13.38,3.94,4.02,3.39,5.2,7.87,5.2,11.81,0,5.12-2.05,9.61-6.14,12.36-1.34.95-3.23,1.81-5.75,2.28l16.38,22.12h-12.76l-14.01-21.1h-1.26v21.1H0V4.88h15.2Zm-4.96,24.17h2.91c1.97,0,10.08-.24,10.08-7.95s-8.03-7.87-9.92-7.87h-3.07v15.83Z"/>
      <path class="cls-1" d="m77.24,47.87c-1.02,2.52-4.88,10.63-16.77,10.63-5.51,0-9.68-1.58-13.07-4.8-3.78-3.54-5.35-7.95-5.35-13.31,0-6.77,2.76-10.94,5.2-13.38,4.02-3.94,8.74-4.8,12.83-4.8,6.93,0,10.94,2.76,13.31,5.59,3.62,4.33,4.09,9.68,4.09,13.38v.79h-25.51c0,2.05.55,4.25,1.65,5.75,1.02,1.42,3.15,3.23,6.85,3.23s6.38-1.73,7.95-4.49l8.82,1.42Zm-8.82-12.05c-.79-4.65-4.57-6.85-8.11-6.85s-7.24,2.28-8.03,6.85h16.14Z"/>
      <path class="cls-1" d="m103.45,31.42c-2.28-2.13-4.57-2.28-5.59-2.28-2.28,0-3.7,1.1-3.7,2.76,0,.87.39,2.21,3.07,3.07l2.28.71c2.68.87,6.69,2.21,8.66,4.88,1.02,1.42,1.73,3.46,1.73,5.67,0,3.07-1.02,6.14-3.78,8.66s-6.06,3.62-10.24,3.62c-7.09,0-11.1-3.39-13.23-5.67l5.04-5.83c1.89,2.21,4.72,3.94,7.56,3.94,2.68,0,4.72-1.34,4.72-3.7,0-2.13-1.73-2.99-2.99-3.46l-2.2-.79c-2.44-.87-5.28-1.97-7.32-4.09-1.57-1.65-2.6-3.78-2.6-6.54,0-3.31,1.58-6.06,3.54-7.72,2.68-2.13,6.14-2.44,8.9-2.44,2.52,0,6.54.32,10.87,3.62l-4.72,5.59Z"/>
      <path class="cls-1" d="m148.25,27.01c3.39,3.07,5.75,7.79,5.75,13.38s-2.36,10.24-5.75,13.31c-2.91,2.68-7.32,4.8-13.78,4.8s-10.87-2.13-13.78-4.8c-3.39-3.07-5.75-7.79-5.75-13.31s2.36-10.31,5.75-13.38c2.91-2.68,7.32-4.8,13.78-4.8s10.87,2.13,13.78,4.8Zm-4.17,13.38c0-5.35-4.09-9.68-9.61-9.68s-9.61,4.33-9.61,9.68,4.02,9.61,9.61,9.61,9.61-4.41,9.61-9.61Z"/>
      <path class="cls-1" d="m171,0v57.4h-9.61V0h9.61Z"/>
      <path class="cls-1" d="m189.74,23.31v19.29c0,1.81.16,4.25,2.05,5.98,1.18,1.02,3.07,1.73,4.88,1.73s3.7-.71,4.88-1.73c1.89-1.73,2.05-4.17,2.05-5.98v-19.29h9.61v20.87c0,3.07-.39,7.17-4.17,10.47-3.15,2.76-8.19,3.86-12.36,3.86s-9.21-1.1-12.36-3.86c-3.78-3.31-4.17-7.4-4.17-10.47v-20.87h9.61Z"/>
      <path class="cls-1" d="m231.94,31.49v25.9h-9.61v-25.9h-3.78v-8.19h3.78v-11.65h9.61v11.65h6.61v8.19h-6.61Z"/>
      <path class="cls-1" d="m248.39,3.15c3.15,0,5.75,2.6,5.75,5.75s-2.6,5.75-5.75,5.75-5.75-2.6-5.75-5.75,2.6-5.75,5.75-5.75Zm4.8,20.16v34.09h-9.61V23.31h9.61Z"/>
      <path class="cls-1" d="m293.9,27.01c3.39,3.07,5.75,7.79,5.75,13.38s-2.36,10.24-5.75,13.31c-2.91,2.68-7.32,4.8-13.78,4.8s-10.87-2.13-13.78-4.8c-3.39-3.07-5.75-7.79-5.75-13.31s2.36-10.31,5.75-13.38c2.91-2.68,7.32-4.8,13.78-4.8s10.87,2.13,13.78,4.8Zm-4.17,13.38c0-5.35-4.09-9.68-9.61-9.68s-9.61,4.33-9.61,9.68,4.02,9.61,9.61,9.61,9.61-4.41,9.61-9.61Z"/>
      <path class="cls-1" d="m307.05,23.31h9.61v4.41c1.81-2.52,5.04-5.51,10.55-5.51,2.99,0,7.4.87,10.08,4.17,2.36,2.91,2.68,6.3,2.68,9.61v21.42h-9.61v-18.58c0-1.89-.08-4.88-1.81-6.69-1.5-1.57-3.54-1.73-4.49-1.73-2.52,0-4.49.87-5.91,2.99-1.42,2.21-1.5,4.65-1.5,6.61v17.4h-9.61V23.31Z"/>
    </g>
  </g>
</svg>