<?xml version="1.0" encoding="UTF-8"?>
<svg id="Layer_2" data-name="Layer 2" xmlns="http://www.w3.org/2000/svg" viewBox="0 0 454.11 85.58">
  <defs>
    <style>
      .cls-1 {
        fill: #fff;
        stroke-width: 0px;
      }
    </style>
  </defs>
  <g id="Layer_2-2" data-name="Layer 2">
    <g>
      <path class="cls-1" d="m15.2,13.38c7.24,0,10.94,1.89,13.38,3.94,4.02,3.39,5.2,7.87,5.2,11.81,0,5.12-2.05,9.61-6.14,12.36-1.34.95-3.23,1.81-5.75,2.28l16.38,22.12h-12.76l-14.01-21.1h-1.26v21.1H0V13.38h15.2Zm-4.96,24.17h2.91c1.97,0,10.08-.24,10.08-7.95s-8.03-7.87-9.92-7.87h-3.07v15.83Z"/>
      <path class="cls-1" d="m77.24,56.37c-1.02,2.52-4.88,10.63-16.77,10.63-5.51,0-9.68-1.58-13.07-4.8-3.78-3.54-5.35-7.95-5.35-13.31,0-6.77,2.76-10.94,5.2-13.38,4.02-3.94,8.74-4.8,12.83-4.8,6.93,0,10.94,2.76,13.31,5.59,3.62,4.33,4.09,9.68,4.09,13.38v.79h-25.51c0,2.05.55,4.25,1.65,5.75,1.02,1.42,3.15,3.23,6.85,3.23s6.38-1.73,7.95-4.49l8.82,1.42Zm-8.82-12.05c-.79-4.65-4.57-6.85-8.11-6.85s-7.24,2.28-8.03,6.85h16.14Z"/>
      <path class="cls-1" d="m103.45,39.92c-2.28-2.13-4.57-2.28-5.59-2.28-2.28,0-3.7,1.1-3.7,2.76,0,.87.39,2.2,3.07,3.07l2.28.71c2.68.87,6.69,2.2,8.66,4.88,1.02,1.42,1.73,3.46,1.73,5.67,0,3.07-1.02,6.14-3.78,8.66s-6.06,3.62-10.24,3.62c-7.09,0-11.1-3.39-13.23-5.67l5.04-5.83c1.89,2.2,4.72,3.94,7.56,3.94,2.68,0,4.72-1.34,4.72-3.7,0-2.13-1.73-2.99-2.99-3.46l-2.2-.79c-2.44-.87-5.28-1.97-7.32-4.09-1.57-1.65-2.6-3.78-2.6-6.54,0-3.31,1.57-6.06,3.54-7.72,2.68-2.13,6.14-2.44,8.9-2.44,2.52,0,6.54.31,10.87,3.62l-4.72,5.59Z"/>
      <path class="cls-1" d="m126.28,40v25.9h-9.61v-25.9h-3.78v-8.19h3.78v-11.65h9.61v11.65h6.61v8.19h-6.61Z"/>
      <path class="cls-1" d="m164.07,31.81h9.61v34.09h-9.61v-4.41c-3.46,4.96-8.03,5.51-10.47,5.51-10.47,0-17.4-8.19-17.4-18.19s6.85-18.11,16.93-18.11c2.6,0,7.72.47,10.94,5.51v-4.41Zm-17.95,17.01c0,5.43,3.94,9.68,9.45,9.68s9.45-4.25,9.45-9.68-3.94-9.61-9.45-9.61-9.45,4.17-9.45,9.61Z"/>
      <path class="cls-1" d="m182.81,31.81h9.61v5.12c1.5-2.91,3.54-4.33,4.25-4.72,1.5-.94,3.39-1.5,5.67-1.5,1.65,0,2.99.39,4.09.79l-1.26,8.98c-1.26-.87-2.52-1.26-4.49-1.26-1.81,0-4.49.39-6.38,2.76-1.81,2.28-1.89,5.2-1.89,7.56v16.38h-9.61V31.81Z"/>
      <path class="cls-1" d="m223.2,40v25.9h-9.61v-25.9h-3.78v-8.19h3.78v-11.65h9.61v11.65h6.61v8.19h-6.61Z"/>
      <path class="cls-1" d="m281.22,37.79h24.09v.63c0,3.54-.47,14.57-7.72,21.73-5.43,5.43-12.12,6.93-18.66,6.93s-13.31-1.34-19.05-7.09c-1.81-1.81-7.79-8.42-7.79-20.23,0-10.16,4.57-16.38,7.72-19.53,3.94-4.02,10.55-8.03,20.71-8.03,3.94,0,8.11.63,12.13,2.76,3.39,1.73,7.09,4.88,9.84,9.61l-8.9,4.8c-1.81-3.54-4.49-5.35-6.14-6.22-2.2-1.1-4.96-1.65-7.4-1.65-4.17,0-8.9,1.5-12.13,4.65-2.99,2.91-5.28,7.95-5.28,13.86,0,7.01,2.99,11.18,5.2,13.31,2.36,2.28,6.06,4.49,11.65,4.49,3.46,0,7.4-.94,10.31-3.15,2.05-1.57,4.09-4.25,4.96-8.03h-13.54v-8.82Z"/>
      <path class="cls-1" d="m339.48,31.81h9.61v34.09h-9.61v-4.41c-3.46,4.96-8.03,5.51-10.47,5.51-10.47,0-17.4-8.19-17.4-18.19s6.85-18.11,16.93-18.11c2.6,0,7.72.47,10.94,5.51v-4.41Zm-17.95,17.01c0,5.43,3.94,9.68,9.45,9.68s9.45-4.25,9.45-9.68-3.94-9.61-9.45-9.61-9.45,4.17-9.45,9.61Z"/>
      <path class="cls-1" d="m358.22,31.81h9.61v3.86c3.62-4.57,8.11-4.96,10.16-4.96,7.17,0,9.92,4.49,10.79,6.22,1.65-2.68,5.04-6.22,10.94-6.22,5.28,0,7.87,2.44,9.21,4.17,2.21,2.91,2.36,5.83,2.36,9.61v21.42h-9.61v-18.58c0-4.02-.87-5.83-1.58-6.69-1.26-1.57-2.99-1.73-3.94-1.73-2.6,0-4.25,1.18-5.28,2.99-1.26,2.05-1.34,4.8-1.34,6.61v17.4h-9.61v-18.58c0-4.02-.87-5.83-1.57-6.69-1.26-1.57-2.99-1.73-3.94-1.73-2.6,0-4.25,1.18-5.28,2.99-1.26,2.05-1.34,4.8-1.34,6.61v17.4h-9.61V31.81Z"/>
      <path class="cls-1" d="m453.88,56.37c-1.02,2.52-4.88,10.63-16.77,10.63-5.51,0-9.68-1.58-13.07-4.8-3.78-3.54-5.35-7.95-5.35-13.31,0-6.77,2.76-10.94,5.2-13.38,4.02-3.94,8.74-4.8,12.83-4.8,6.93,0,10.94,2.76,13.31,5.59,3.62,4.33,4.09,9.68,4.09,13.38v.79h-25.51c0,2.05.55,4.25,1.65,5.75,1.02,1.42,3.15,3.23,6.85,3.23s6.38-1.73,7.95-4.49l8.82,1.42Zm-8.82-12.05c-.79-4.65-4.57-6.85-8.11-6.85s-7.24,2.28-8.03,6.85h16.14Z"/>
    </g>
  </g>
</svg>