<?xml version="1.0" encoding="UTF-8"?>
<svg id="Layer_2" data-name="Layer 2" xmlns="http://www.w3.org/2000/svg" viewBox="0 0 491.81 68.9">
  <defs>
    <style>
      .cls-1 {
        fill: #fff;
        stroke-width: 0px;
      }
    </style>
  </defs>
  <g id="Layer_2-2" data-name="Layer 2">
    <g>
      <path class="cls-1" d="m2.38,57.32c4.22,2.38,10.38,4.36,16.87,4.36,9.63,0,15.25-4.65,15.25-11.39,0-6.24-3.89-9.8-13.74-13.27C8.87,33.17,1.51,27.52,1.51,18.12,1.51,7.72,10.93,0,25.1,0c7.46,0,12.87,1.58,16.12,3.27l-2.6,7.03c-2.38-1.19-7.25-3.17-13.85-3.17-9.95,0-13.74,5.45-13.74,10,0,6.24,4.44,9.31,14.49,12.87,12.33,4.36,18.61,9.8,18.61,19.6,0,10.3-8.33,19.21-25.53,19.21-7.03,0-14.71-1.88-18.6-4.26l2.38-7.23Z"/>
      <path class="cls-1" d="m85.99,67.81l-.76-6.04h-.32c-2.92,3.76-8.55,7.13-16.01,7.13-10.6,0-16.01-6.83-16.01-13.76,0-11.58,11.25-17.92,31.48-17.82v-.99c0-3.96-1.19-11.09-11.9-11.09-4.87,0-9.95,1.39-13.63,3.56l-2.16-5.74c4.33-2.57,10.6-4.26,17.2-4.26,16.01,0,19.9,10,19.9,19.6v17.92c0,4.16.22,8.22.87,11.48h-8.65Zm-1.41-24.45c-10.38-.2-22.17,1.48-22.17,10.79,0,5.64,4.11,8.32,8.98,8.32,6.81,0,11.14-3.96,12.66-8.02.32-.89.54-1.88.54-2.77v-8.32Z"/>
      <path class="cls-1" d="m111.95,19.9l10.28,26.93c1.73,4.36,3.14,8.32,4.22,12.28h.32c1.19-3.96,2.7-7.92,4.44-12.28l10.17-26.93h9.95l-20.55,47.92h-9.09l-19.9-47.92h10.17Z"/>
      <path class="cls-1" d="m164.51,45.44c.22,11.78,8.44,16.63,17.96,16.63,6.81,0,10.92-1.09,14.49-2.47l1.62,6.24c-3.35,1.39-9.09,2.97-17.42,2.97-16.12,0-25.74-9.7-25.74-24.16s9.3-25.84,24.55-25.84c17.09,0,21.63,13.76,21.63,22.57,0,1.78-.22,3.17-.32,4.06h-36.78Zm27.91-6.24c.11-5.54-2.49-14.16-13.2-14.16-9.63,0-13.85,8.12-14.6,14.16h27.8Z"/>
      <path class="cls-1" d="m292.15,64.84c-4.22,1.39-12.55,3.66-22.39,3.66-11.03,0-20.12-2.57-27.26-8.81-6.27-5.54-10.17-14.45-10.17-24.85.11-19.9,15.04-34.45,39.48-34.45,8.44,0,15.04,1.68,18.17,3.07l-2.27,7.03c-3.89-1.58-8.76-2.87-16.12-2.87-17.74,0-29.31,10.1-29.31,26.83s11.14,26.93,28.12,26.93c6.17,0,10.38-.79,12.55-1.78v-19.9h-14.82v-6.93h24.01v32.08Z"/>
      <path class="cls-1" d="m336.06,67.81l-.76-6.04h-.32c-2.92,3.76-8.55,7.13-16.01,7.13-10.6,0-16.01-6.83-16.01-13.76,0-11.58,11.25-17.92,31.48-17.82v-.99c0-3.96-1.19-11.09-11.9-11.09-4.87,0-9.95,1.39-13.63,3.56l-2.16-5.74c4.33-2.57,10.6-4.26,17.2-4.26,16.01,0,19.9,10,19.9,19.6v17.92c0,4.16.22,8.22.87,11.48h-8.65Zm-1.41-24.45c-10.38-.2-22.17,1.48-22.17,10.79,0,5.64,4.11,8.32,8.98,8.32,6.81,0,11.14-3.96,12.66-8.02.32-.89.54-1.88.54-2.77v-8.32Z"/>
      <path class="cls-1" d="m359.2,32.87c0-4.95-.11-9.01-.43-12.97h8.33l.43,7.72h.32c2.92-4.55,7.79-8.81,16.44-8.81,7.14,0,12.55,3.96,14.82,9.6h.22c1.62-2.67,3.68-4.75,5.84-6.24,3.14-2.18,6.6-3.37,11.57-3.37,6.92,0,17.2,4.16,17.2,20.79v28.21h-9.3v-27.13c0-9.21-3.68-14.75-11.36-14.75-5.41,0-9.63,3.66-11.25,7.92-.43,1.19-.76,2.77-.76,4.36v29.6h-9.3v-28.71c0-7.62-3.68-13.17-10.93-13.17-5.95,0-10.28,4.36-11.79,8.71-.54,1.29-.76,2.77-.76,4.26v28.91h-9.3v-34.95Z"/>
      <path class="cls-1" d="m454.71,45.44c.22,11.78,8.44,16.63,17.96,16.63,6.81,0,10.93-1.09,14.49-2.47l1.62,6.24c-3.35,1.39-9.09,2.97-17.42,2.97-16.12,0-25.74-9.7-25.74-24.16s9.3-25.84,24.55-25.84c17.09,0,21.63,13.76,21.63,22.57,0,1.78-.22,3.17-.32,4.06h-36.78Zm27.91-6.24c.11-5.54-2.49-14.16-13.2-14.16-9.63,0-13.85,8.12-14.6,14.16h27.8Z"/>
    </g>
  </g>
</svg>