<?xml version="1.0" encoding="UTF-8"?>
<svg id="Layer_2" data-name="Layer 2" xmlns="http://www.w3.org/2000/svg" viewBox="0 0 208.64 58.58">
  <defs>
    <style>
      .cls-1 {
        fill: #fff;
        stroke-width: 0px;
      }
    </style>
  </defs>
  <g id="Layer_2-2" data-name="Layer 2">
    <g>
      <path class="cls-1" d="m29.13,16.85c-3.07-4.09-6.69-4.49-8.58-4.49-5.51,0-7.24,3.46-7.24,6.14,0,1.26.39,2.44,1.65,3.54,1.26,1.18,2.99,1.81,6.3,2.99,4.09,1.42,7.95,2.83,10.63,5.28,2.36,2.13,4.49,5.67,4.49,11.02,0,10.24-7.4,17.24-18.27,17.24-9.68,0-15.35-5.91-18.11-9.92l6.69-6.38c2.52,5.12,7.32,7.01,11.02,7.01,4.65,0,8.11-2.83,8.11-7.24,0-1.89-.63-3.39-2.05-4.72-1.97-1.81-5.12-2.83-8.11-3.86-2.76-.94-6.06-2.2-8.74-4.57-1.73-1.5-4.17-4.41-4.17-9.76C2.76,11.42,7.95,3.7,19.61,3.7c3.31,0,9.53.63,14.88,6.14l-5.35,7.01Z"/>
      <path class="cls-1" d="m75.5,27.01c3.39,3.07,5.75,7.79,5.75,13.38s-2.36,10.24-5.75,13.31c-2.91,2.68-7.32,4.8-13.78,4.8s-10.87-2.13-13.78-4.8c-3.39-3.07-5.75-7.79-5.75-13.31s2.36-10.31,5.75-13.38c2.91-2.68,7.32-4.8,13.78-4.8s10.87,2.13,13.78,4.8Zm-4.17,13.38c0-5.35-4.09-9.68-9.61-9.68s-9.61,4.33-9.61,9.68,4.02,9.61,9.61,9.61,9.61-4.41,9.61-9.61Z"/>
      <path class="cls-1" d="m98.26,23.31v19.29c0,1.81.16,4.25,2.05,5.98,1.18,1.02,3.07,1.73,4.88,1.73s3.7-.71,4.88-1.73c1.89-1.73,2.05-4.17,2.05-5.98v-19.29h9.61v20.86c0,3.07-.39,7.17-4.17,10.47-3.15,2.76-8.19,3.86-12.36,3.86s-9.21-1.1-12.36-3.86c-3.78-3.31-4.17-7.4-4.17-10.47v-20.86h9.61Z"/>
      <path class="cls-1" d="m130.85,23.31h9.61v4.41c1.81-2.52,5.04-5.51,10.55-5.51,2.99,0,7.4.87,10.08,4.17,2.36,2.91,2.68,6.3,2.68,9.61v21.42h-9.61v-18.58c0-1.89-.08-4.88-1.81-6.69-1.5-1.57-3.54-1.73-4.49-1.73-2.52,0-4.49.87-5.91,2.99-1.42,2.2-1.5,4.65-1.5,6.61v17.4h-9.61V23.31Z"/>
      <path class="cls-1" d="m199.03,0h9.61v57.4h-9.61v-4.41c-3.46,4.96-8.03,5.51-10.47,5.51-10.47,0-17.4-8.19-17.4-18.19s6.85-18.11,16.93-18.11c2.6,0,7.72.47,10.94,5.51V0Zm-17.95,40.31c0,5.43,3.94,9.68,9.45,9.68s9.45-4.25,9.45-9.68-3.94-9.61-9.45-9.61-9.45,4.17-9.45,9.61Z"/>
    </g>
  </g>
</svg>