<?xml version="1.0" encoding="UTF-8"?>
<svg id="Layer_2" data-name="Layer 2" xmlns="http://www.w3.org/2000/svg" viewBox="0 0 1017.45 889.36">
  <defs>
    <style>
      .cls-1 {
        fill: #fff;
      }

      .cls-1, .cls-2 {
        stroke-width: 0px;
      }

      .cls-2 {
        fill: #3d3d3d;
      }
    </style>
  </defs>
  <g id="Layer_2-2" data-name="Layer 2">
    <rect class="cls-2" width="1017.45" height="889.36" rx="212.24" ry="212.24"/>
    <g>
      <path class="cls-1" d="m152.72,461.63c-3,1.08-8.93,2.85-15.94,2.85-7.86,0-14.33-2-19.41-6.86-4.47-4.31-7.24-11.25-7.24-19.33.08-15.48,10.71-26.81,28.12-26.81,6.01,0,10.71,1.31,12.94,2.39l-1.62,5.47c-2.77-1.23-6.24-2.23-11.48-2.23-12.63,0-20.87,7.86-20.87,20.87s7.93,20.95,20.03,20.95c4.39,0,7.39-.62,8.94-1.39v-15.48h-10.55v-5.39h17.1v24.96Z"/>
      <path class="cls-1" d="m184,463.94l-.54-4.7h-.23c-2.08,2.93-6.09,5.55-11.4,5.55-7.55,0-11.4-5.31-11.4-10.71,0-9.01,8.01-13.94,22.41-13.86v-.77c0-3.08-.85-8.63-8.47-8.63-3.47,0-7.09,1.08-9.71,2.77l-1.54-4.47c3.08-2,7.55-3.31,12.25-3.31,11.4,0,14.17,7.78,14.17,15.25v13.94c0,3.23.15,6.39.62,8.94h-6.16Zm-1-19.03c-7.39-.15-15.79,1.16-15.79,8.4,0,4.39,2.93,6.47,6.39,6.47,4.85,0,7.93-3.08,9.01-6.24.23-.69.38-1.46.38-2.16v-6.47Z"/>
      <path class="cls-1" d="m200.49,436.75c0-3.85-.08-7.01-.31-10.09h5.93l.31,6.01h.23c2.08-3.54,5.55-6.86,11.71-6.86,5.08,0,8.93,3.08,10.55,7.47h.15c1.16-2.08,2.62-3.7,4.16-4.85,2.23-1.69,4.7-2.62,8.24-2.62,4.93,0,12.25,3.23,12.25,16.18v21.95h-6.62v-21.11c0-7.16-2.62-11.48-8.09-11.48-3.85,0-6.85,2.85-8.01,6.16-.31.92-.54,2.16-.54,3.39v23.03h-6.62v-22.34c0-5.93-2.62-10.24-7.78-10.24-4.24,0-7.32,3.39-8.4,6.78-.38,1-.54,2.16-.54,3.31v22.49h-6.62v-27.19Z"/>
      <path class="cls-1" d="m268.5,446.53c.15,9.17,6.01,12.94,12.79,12.94,4.85,0,7.78-.85,10.32-1.93l1.16,4.85c-2.39,1.08-6.47,2.31-12.4,2.31-11.48,0-18.33-7.55-18.33-18.79s6.62-20.1,17.49-20.1c12.17,0,15.41,10.71,15.41,17.56,0,1.39-.15,2.46-.23,3.16h-26.19Zm19.87-4.85c.08-4.31-1.77-11.01-9.4-11.01-6.86,0-9.86,6.32-10.4,11.01h19.79Z"/>
      <path class="cls-1" d="m318.73,457c2,1.31,5.55,2.7,8.94,2.7,4.93,0,7.24-2.46,7.24-5.55,0-3.24-1.93-5.01-6.93-6.86-6.7-2.39-9.86-6.08-9.86-10.55,0-6.01,4.85-10.94,12.86-10.94,3.77,0,7.09,1.08,9.17,2.31l-1.7,4.93c-1.46-.92-4.16-2.16-7.62-2.16-4.01,0-6.24,2.31-6.24,5.08,0,3.08,2.23,4.47,7.09,6.32,6.47,2.46,9.78,5.7,9.78,11.25,0,6.55-5.08,11.17-13.94,11.17-4.08,0-7.86-1-10.48-2.54l1.69-5.16Z"/>
      <path class="cls-1" d="m370.8,463.94l-.54-4.7h-.23c-2.08,2.93-6.08,5.55-11.4,5.55-7.55,0-11.4-5.31-11.4-10.71,0-9.01,8.01-13.94,22.41-13.86v-.77c0-3.08-.85-8.63-8.47-8.63-3.47,0-7.09,1.08-9.71,2.77l-1.54-4.47c3.08-2,7.55-3.31,12.25-3.31,11.4,0,14.17,7.78,14.17,15.25v13.94c0,3.23.15,6.39.62,8.94h-6.16Zm-1-19.03c-7.39-.15-15.79,1.16-15.79,8.4,0,4.39,2.93,6.47,6.39,6.47,4.85,0,7.93-3.08,9.01-6.24.23-.69.38-1.46.38-2.16v-6.47Z"/>
      <path class="cls-1" d="m389.29,426.66l7.32,20.95c1.23,3.39,2.23,6.47,3,9.55h.23c.85-3.08,1.92-6.16,3.16-9.55l7.24-20.95h7.09l-14.63,37.28h-6.47l-14.17-37.28h7.24Z"/>
      <path class="cls-1" d="m426.73,446.53c.15,9.17,6.01,12.94,12.79,12.94,4.85,0,7.78-.85,10.32-1.93l1.16,4.85c-2.39,1.08-6.47,2.31-12.4,2.31-11.48,0-18.33-7.55-18.33-18.79s6.62-20.1,17.49-20.1c12.17,0,15.41,10.71,15.41,17.56,0,1.39-.15,2.46-.23,3.16h-26.19Zm19.87-4.85c.08-4.31-1.77-11.01-9.4-11.01-6.86,0-9.86,6.32-10.4,11.01h19.79Z"/>
      <path class="cls-1" d="m493.74,409.25v45.06c0,3.31.08,7.09.31,9.63h-6.08l-.31-6.47h-.15c-2.08,4.16-6.62,7.32-12.71,7.32-9.01,0-15.94-7.63-15.94-18.95-.08-12.4,7.63-20.03,16.71-20.03,5.7,0,9.55,2.7,11.25,5.7h.15v-22.26h6.78Zm-6.78,32.58c0-.85-.08-2-.31-2.85-1-4.31-4.7-7.86-9.78-7.86-7.01,0-11.17,6.16-11.17,14.4,0,7.55,3.7,13.79,11.01,13.79,4.54,0,8.7-3,9.94-8.09.23-.92.31-1.85.31-2.93v-6.47Z"/>
      <path class="cls-1" d="m520.39,457c2,1.31,5.55,2.7,8.94,2.7,4.93,0,7.24-2.46,7.24-5.55,0-3.24-1.93-5.01-6.93-6.86-6.7-2.39-9.86-6.08-9.86-10.55,0-6.01,4.85-10.94,12.86-10.94,3.77,0,7.09,1.08,9.17,2.31l-1.7,4.93c-1.46-.92-4.16-2.16-7.62-2.16-4.01,0-6.24,2.31-6.24,5.08,0,3.08,2.23,4.47,7.09,6.32,6.47,2.46,9.78,5.7,9.78,11.25,0,6.55-5.08,11.17-13.94,11.17-4.08,0-7.86-1-10.48-2.54l1.69-5.16Z"/>
      <path class="cls-1" d="m583.02,453.77c0,3.85.08,7.24.31,10.17h-6.01l-.38-6.08h-.15c-1.77,3-5.7,6.93-12.32,6.93-5.85,0-12.86-3.23-12.86-16.33v-21.8h6.78v20.64c0,7.09,2.16,11.86,8.32,11.86,4.54,0,7.7-3.16,8.93-6.16.39-1,.62-2.23.62-3.47v-22.88h6.78v27.11Z"/>
      <path class="cls-1" d="m620.84,462.55c-1.77.92-5.7,2.16-10.71,2.16-11.25,0-18.56-7.63-18.56-19.03s7.86-19.8,20.03-19.8c4,0,7.55,1,9.4,1.93l-1.54,5.24c-1.62-.92-4.16-1.77-7.86-1.77-8.55,0-13.17,6.32-13.17,14.1,0,8.63,5.55,13.94,12.94,13.94,3.85,0,6.39-1,8.32-1.85l1.16,5.08Z"/>
      <path class="cls-1" d="m654.89,462.55c-1.77.92-5.7,2.16-10.71,2.16-11.25,0-18.56-7.63-18.56-19.03s7.86-19.8,20.03-19.8c4,0,7.55,1,9.4,1.93l-1.54,5.24c-1.62-.92-4.16-1.77-7.86-1.77-8.55,0-13.17,6.32-13.17,14.1,0,8.63,5.55,13.94,12.94,13.94,3.85,0,6.39-1,8.32-1.85l1.16,5.08Z"/>
      <path class="cls-1" d="m666.14,446.53c.15,9.17,6.01,12.94,12.79,12.94,4.85,0,7.78-.85,10.32-1.93l1.16,4.85c-2.39,1.08-6.47,2.31-12.4,2.31-11.48,0-18.33-7.55-18.33-18.79s6.62-20.1,17.49-20.1c12.17,0,15.41,10.71,15.41,17.56,0,1.39-.15,2.46-.23,3.16h-26.19Zm19.87-4.85c.08-4.31-1.77-11.01-9.4-11.01-6.86,0-9.86,6.32-10.4,11.01h19.79Z"/>
      <path class="cls-1" d="m700.03,457c2,1.31,5.55,2.7,8.94,2.7,4.93,0,7.24-2.46,7.24-5.55,0-3.24-1.93-5.01-6.93-6.86-6.7-2.39-9.86-6.08-9.86-10.55,0-6.01,4.85-10.94,12.86-10.94,3.77,0,7.09,1.08,9.17,2.31l-1.7,4.93c-1.46-.92-4.16-2.16-7.62-2.16-4.01,0-6.24,2.31-6.24,5.08,0,3.08,2.23,4.47,7.09,6.32,6.47,2.46,9.78,5.7,9.78,11.25,0,6.55-5.08,11.17-13.94,11.17-4.08,0-7.86-1-10.48-2.54l1.69-5.16Z"/>
      <path class="cls-1" d="m730.53,457c2,1.31,5.55,2.7,8.94,2.7,4.93,0,7.24-2.46,7.24-5.55,0-3.24-1.93-5.01-6.93-6.86-6.7-2.39-9.86-6.08-9.86-10.55,0-6.01,4.85-10.94,12.86-10.94,3.77,0,7.09,1.08,9.17,2.31l-1.7,4.93c-1.46-.92-4.16-2.16-7.62-2.16-4.01,0-6.24,2.31-6.24,5.08,0,3.08,2.23,4.47,7.09,6.32,6.47,2.46,9.78,5.7,9.78,11.25,0,6.55-5.08,11.17-13.94,11.17-4.08,0-7.86-1-10.48-2.54l1.69-5.16Z"/>
      <path class="cls-1" d="m762.66,463.94v-32.12h-5.24v-5.16h5.24v-1.77c0-5.24,1.16-10.01,4.31-13.02,2.54-2.46,5.93-3.47,9.09-3.47,2.39,0,4.47.54,5.78,1.08l-.92,5.24c-1-.46-2.39-.85-4.31-.85-5.78,0-7.24,5.08-7.24,10.78v2h9.01v5.16h-9.01v32.12h-6.7Z"/>
      <path class="cls-1" d="m815.65,453.77c0,3.85.08,7.24.31,10.17h-6.01l-.39-6.08h-.15c-1.77,3-5.7,6.93-12.32,6.93-5.85,0-12.86-3.23-12.86-16.33v-21.8h6.78v20.64c0,7.09,2.16,11.86,8.32,11.86,4.54,0,7.7-3.16,8.93-6.16.39-1,.62-2.23.62-3.47v-22.88h6.78v27.11Z"/>
      <path class="cls-1" d="m826.9,409.25h6.78v54.69h-6.78v-54.69Z"/>
      <path class="cls-1" d="m845.08,409.25h6.78v54.69h-6.78v-54.69Z"/>
      <path class="cls-1" d="m865.72,426.66l8.17,22.03c.85,2.46,1.77,5.39,2.39,7.63h.15c.69-2.23,1.46-5.08,2.39-7.78l7.39-21.88h7.16l-10.17,26.57c-4.85,12.79-8.17,19.33-12.79,23.34-3.31,2.93-6.62,4.08-8.32,4.39l-1.7-5.7c1.7-.54,3.93-1.62,5.93-3.31,1.85-1.46,4.16-4.08,5.7-7.55.31-.69.54-1.23.54-1.62s-.15-.92-.46-1.77l-13.79-34.35h7.39Z"/>
      <path class="cls-1" d="m898.23,460.01c0-2.77,1.93-4.78,4.54-4.78,2.77,0,4.54,2,4.54,4.78s-1.77,4.78-4.54,4.78-4.54-2.08-4.54-4.78Zm1.93-11.02l-1.08-36.97h7.39l-1.08,36.97h-5.24Z"/>
    </g>
  </g>
</svg>