<?xml version="1.0" encoding="UTF-8"?>
<svg id="Layer_2" data-name="Layer 2" xmlns="http://www.w3.org/2000/svg" viewBox="0 0 816.29 71.66">
  <defs>
    <style>
      .cls-1 {
        fill: #fff;
      }
    </style>
  </defs>
  <g id="Layer_2-2" data-name="Layer 2">
    <g>
      <path class="cls-1" d="m50.06,19.13c-7.04-6.38-13.61-7.04-17.23-7.04-13.8,0-23.13,10.18-23.13,24.17s9.71,23.79,23.22,23.79c7.61,0,13.51-3.9,17.13-7.33v11.52c-6.38,3.81-13.04,4.76-17.42,4.76-11.51,0-18.75-5.23-22.46-8.76C2.76,53.29,0,45.21,0,36.26c0-11.71,4.85-19.79,10.18-24.84,6.57-6.19,14.18-8.28,22.94-8.28,5.81,0,11.42,1.05,16.94,4.57v11.42Z"/>
      <path class="cls-1" d="m71.76,29.41h27.22V4.28h9.71v63.48h-9.71v-29.22h-27.22v29.22h-9.71V4.28h9.71v25.12Z"/>
      <path class="cls-1" d="m186.92,36.07c0,18.65-13.99,32.93-33.02,32.93s-33.02-14.28-33.02-32.93S134.86,3.14,153.89,3.14s33.02,14.28,33.02,32.93Zm-9.71,0c0-14.08-9.71-23.98-23.32-23.98s-23.32,9.9-23.32,23.98,9.71,23.98,23.32,23.98,23.32-9.9,23.32-23.98Z"/>
      <path class="cls-1" d="m262.1,36.07c0,18.65-13.99,32.93-33.02,32.93s-33.02-14.28-33.02-32.93S210.04,3.14,229.08,3.14s33.02,14.28,33.02,32.93Zm-9.71,0c0-14.08-9.71-23.98-23.32-23.98s-23.32,9.9-23.32,23.98,9.71,23.98,23.32,23.98,23.32-9.9,23.32-23.98Z"/>
      <path class="cls-1" d="m301.7,18.37c-.57-1.43-1.43-2.76-2.86-4-2-1.62-4.09-2.28-6.85-2.28-5.9,0-8.95,3.52-8.95,7.61,0,1.9.67,5.23,6.85,7.71l6.38,2.57c11.71,4.76,14.94,11.42,14.94,18.65,0,12.09-8.56,20.37-20.46,20.37-7.33,0-11.71-2.76-14.94-6.38-3.43-3.81-4.95-8-5.33-12.37l9.61-2.09c0,3.14,1.14,6.09,2.66,8.09,1.81,2.28,4.47,3.81,8.28,3.81,5.9,0,10.47-4.28,10.47-10.66s-4.95-9.14-9.14-10.85l-6.09-2.57c-5.23-2.19-12.94-6.57-12.94-16.08,0-8.57,6.66-16.75,18.56-16.75,6.85,0,10.75,2.57,12.75,4.28,1.71,1.52,3.52,3.71,4.85,6.38l-7.8,4.57Z"/>
      <path class="cls-1" d="m358.42,13.42h-25.31v16.08h24.55v9.14h-24.55v19.99h25.31v9.14h-35.02V4.28h35.02v9.14Z"/>
      <path class="cls-1" d="m402.86,4.28v54.34h18.65v9.14h-28.36V4.28h9.71Z"/>
      <path class="cls-1" d="m490.8,36.07c0,18.65-13.99,32.93-33.02,32.93s-33.02-14.28-33.02-32.93,13.99-32.93,33.02-32.93,33.02,14.28,33.02,32.93Zm-9.71,0c0-14.08-9.71-23.98-23.32-23.98s-23.32,9.9-23.32,23.98,9.71,23.98,23.32,23.98,23.32-9.9,23.32-23.98Z"/>
      <path class="cls-1" d="m550,19.13c-7.04-6.38-13.61-7.04-17.22-7.04-13.8,0-23.13,10.18-23.13,24.17s9.71,23.79,23.22,23.79c7.61,0,13.51-3.9,17.13-7.33v11.52c-6.38,3.81-13.04,4.76-17.42,4.76-11.52,0-18.75-5.23-22.46-8.76-7.42-6.95-10.18-15.04-10.18-23.98,0-11.71,4.85-19.79,10.18-24.84,6.57-6.19,14.18-8.28,22.94-8.28,5.8,0,11.42,1.05,16.94,4.57v11.42Z"/>
      <path class="cls-1" d="m598.35,52.44h-27.12l-6.95,15.32h-10.47L585.4.57l30.07,67.19h-10.47l-6.66-15.32Zm-3.9-9.14l-9.42-21.51-9.8,21.51h19.22Z"/>
      <path class="cls-1" d="m637.27,13.42v54.34h-9.71V13.42h-14.56V4.28h38.83v9.14h-14.56Z"/>
      <path class="cls-1" d="m670.11,4.28v63.48h-9.71V4.28h9.71Z"/>
      <path class="cls-1" d="m748.33,36.07c0,18.65-13.99,32.93-33.02,32.93s-33.02-14.28-33.02-32.93,13.99-32.93,33.02-32.93,33.02,14.28,33.02,32.93Zm-9.71,0c0-14.08-9.71-23.98-23.32-23.98s-23.32,9.9-23.32,23.98,9.71,23.98,23.32,23.98,23.32-9.9,23.32-23.98Z"/>
      <path class="cls-1" d="m760.52,67.76V0l46.06,48.25V4.28h9.71v67.38l-46.06-48.25v44.35h-9.71Z"/>
    </g>
  </g>
</svg>